<svg width="161" height="24" viewBox="0 0 161 24" fill="none" xmlns="http://www.w3.org/2000/svg">
<path d="M120.522 2.85751C120.762 2.85751 120.996 2.91958 121.224 3.04088C121.453 3.16217 121.63 3.33989 121.757 3.56838C121.884 3.79687 121.949 4.03664 121.949 4.28488C121.949 4.53029 121.884 4.76725 121.76 4.99574C121.636 5.22141 121.458 5.39913 121.233 5.52324C121.007 5.64736 120.77 5.71224 120.522 5.71224C120.276 5.71224 120.039 5.65018 119.811 5.52324C119.585 5.39913 119.408 5.22141 119.283 4.99574C119.157 4.76725 119.095 4.53029 119.095 4.28488C119.095 4.03664 119.159 3.79687 119.286 3.56838C119.413 3.33989 119.594 3.16217 119.819 3.04088C120.048 2.91958 120.282 2.85751 120.522 2.85751ZM120.522 3.09447C120.322 3.09447 120.127 3.14525 119.938 3.24962C119.749 3.35117 119.599 3.49786 119.492 3.68967C119.385 3.88149 119.331 4.07895 119.331 4.28488C119.331 4.4908 119.385 4.68826 119.489 4.87726C119.597 5.06626 119.743 5.21294 119.932 5.31732C120.121 5.42451 120.319 5.47528 120.525 5.47528C120.731 5.47528 120.928 5.42451 121.117 5.31732C121.306 5.21294 121.453 5.06626 121.557 4.87726C121.661 4.68826 121.715 4.4908 121.715 4.28488C121.715 4.07895 121.661 3.87867 121.554 3.68967C121.447 3.49786 121.3 3.35117 121.109 3.24962C120.917 3.14525 120.722 3.09447 120.522 3.09447ZM119.896 5.07754V3.54017H120.423C120.604 3.54017 120.733 3.55427 120.815 3.58248C120.897 3.61069 120.962 3.65864 121.007 3.73199C121.055 3.80251 121.078 3.87868 121.078 3.95766C121.078 4.0705 121.038 4.16922 120.956 4.25103C120.877 4.33565 120.77 4.38079 120.638 4.39207C120.691 4.41464 120.736 4.44285 120.767 4.47388C120.829 4.53312 120.906 4.63748 120.993 4.77853L121.182 5.08036H120.877L120.742 4.83777C120.635 4.64877 120.55 4.53029 120.482 4.47952C120.437 4.44284 120.37 4.42592 120.285 4.42592H120.138V5.07754H119.896ZM120.144 4.21154H120.443C120.587 4.21154 120.685 4.18897 120.736 4.14666C120.79 4.10434 120.815 4.04792 120.815 3.9774C120.815 3.93227 120.804 3.88996 120.779 3.85611C120.753 3.81943 120.717 3.79405 120.674 3.77712C120.629 3.7602 120.547 3.75173 120.426 3.75173H120.144V4.21154Z" fill="white"/>
<path d="M11.4217 11.4245H0V0C6.30748 0.00282087 11.4217 5.11706 11.4217 11.4245Z" fill="white"/>
<path d="M23.9887 0.00283813H12.567V11.4274H23.9887V0.00283813Z" fill="white"/>
<path d="M11.4217 12.567H0V23.9916H11.4217V12.567Z" fill="white"/>
<path d="M23.9887 23.9916C17.6812 23.9916 12.567 18.8773 12.567 12.567H23.9887V23.9916Z" fill="white"/>
<path d="M30.8406 19.9718V4.77579H34.993L39.7208 10.2314C39.8533 10.378 40.0311 10.5924 40.2511 10.8717C40.4711 11.151 40.6968 11.4359 40.9253 11.7236C41.1538 12.0113 41.3258 12.2426 41.4443 12.4175L41.5543 12.3724C41.5402 11.9606 41.5346 11.5515 41.5346 11.1481C41.5346 10.7419 41.5346 10.4373 41.5346 10.2314V4.77579H45.9746V19.9718H41.8449L36.5219 13.8985C36.2708 13.6051 36.0593 13.3343 35.8815 13.0917C35.7038 12.8491 35.5346 12.6178 35.371 12.395L35.261 12.4401C35.2751 12.7194 35.2835 13.0015 35.2835 13.2807C35.2835 13.56 35.2835 13.7659 35.2835 13.8985V19.9718H30.8406Z" fill="white"/>
<path d="M54.1128 20.237C52.787 20.237 51.6615 20.0198 50.7334 19.5854C49.8054 19.1509 49.0945 18.4852 48.6037 17.5854C48.11 16.6883 47.8646 15.5402 47.8646 14.1411C47.8646 12.7729 48.1072 11.6389 48.5924 10.7391C49.0776 9.84205 49.7772 9.17068 50.6911 8.73063C51.6051 8.28775 52.7024 8.06772 53.9831 8.06772C55.2497 8.06772 56.3188 8.28211 57.1961 8.70806C58.0705 9.13401 58.7391 9.79128 59.1961 10.6742C59.6531 11.5571 59.8815 12.6996 59.8815 14.0988V14.8717H51.5317C51.5317 15.4894 51.6192 16.0113 51.7969 16.4401C51.9718 16.866 52.2454 17.1904 52.615 17.4133C52.9817 17.6333 53.4753 17.7461 54.0959 17.7461C54.4626 17.7461 54.787 17.701 55.0691 17.6136C55.3484 17.5233 55.5853 17.3964 55.7743 17.2271C55.9633 17.0578 56.1128 16.8547 56.2172 16.6178C56.3216 16.3837 56.3724 16.1157 56.3724 15.8223H59.8844C59.8844 16.5303 59.7574 17.1594 59.4979 17.7095C59.2384 18.2624 58.8604 18.725 58.3611 19.1002C57.8618 19.4753 57.2525 19.7602 56.5388 19.9521C55.8167 20.1382 55.0099 20.237 54.1128 20.237ZM51.5487 12.8576H56.1862C56.1862 12.4739 56.1382 12.1411 56.0423 11.8533C55.9464 11.5656 55.8054 11.3286 55.622 11.134C55.4358 10.9422 55.2158 10.7983 54.9591 10.7024C54.7024 10.6065 54.4034 10.5586 54.0649 10.5586C53.5346 10.5586 53.0917 10.6488 52.7391 10.8237C52.3865 11.0014 52.1129 11.2581 51.9239 11.5966C51.732 11.938 51.6079 12.3583 51.5487 12.8576Z" fill="white"/>
<path d="M63.5458 19.9718L59.9013 8.35265H63.1255L64.5839 14.0508C64.6573 14.3442 64.7278 14.6629 64.7927 15.0015C64.8604 15.34 64.9224 15.6418 64.9817 15.9069C65.0409 16.1721 65.0832 16.3639 65.1142 16.4796H65.2694C65.3286 16.1862 65.3907 15.8787 65.4556 15.5628C65.5233 15.244 65.5882 14.945 65.6559 14.6573C65.7207 14.3696 65.7687 14.1524 65.7969 14.0057L67.1876 8.34982H70.3893L71.8251 14.0254C71.8843 14.2313 71.9436 14.4852 72 14.7871C72.0592 15.0889 72.1241 15.3907 72.1975 15.6926C72.2708 15.9944 72.33 16.2567 72.3752 16.4768H72.5078C72.536 16.2708 72.5839 16.0282 72.6516 15.749C72.7165 15.4697 72.7842 15.182 72.8491 14.8886C72.914 14.5924 72.9788 14.3301 73.0353 14.0931L74.4711 8.34982H77.433L73.811 19.969H70.6516L69.3709 14.7786C69.3145 14.4993 69.2412 14.1862 69.1509 13.8393C69.0635 13.4951 68.9845 13.151 68.9196 12.8124C68.8519 12.4739 68.7983 12.1806 68.7532 11.9295H68.6206C68.6206 12.0621 68.5896 12.2652 68.5303 12.536C68.4711 12.8096 68.4034 13.1312 68.3216 13.5092C68.2398 13.8844 68.141 14.3075 68.0226 14.7786L66.6968 19.969H63.5458" fill="white"/>
<path d="M82.9394 20.2369C81.7462 20.2369 80.7504 20.0197 79.9465 19.5853C79.1425 19.1509 78.536 18.4852 78.1242 17.5853C77.7123 16.6883 77.5064 15.5458 77.5064 14.1608C77.5064 12.7616 77.7123 11.6164 78.1242 10.7278C78.536 9.83638 79.1482 9.17347 79.9577 8.73905C80.7673 8.30464 81.7744 8.08743 82.9845 8.08743C84.0875 8.08743 85.0128 8.29618 85.7575 8.71649C86.4994 9.1368 87.0635 9.7715 87.4472 10.6262C87.8308 11.4809 88.0198 12.5557 88.0198 13.8505V14.7334H79.8703C79.8985 15.5571 80.0254 16.2454 80.2483 16.7983C80.4683 17.3512 80.804 17.7546 81.2525 18.0113C81.701 18.2708 82.2737 18.3977 82.9648 18.3977C83.3908 18.3977 83.7744 18.3441 84.1129 18.2313C84.4514 18.1213 84.7391 17.9577 84.9733 17.7461C85.2074 17.5317 85.3908 17.275 85.5262 16.9732C85.6587 16.6714 85.7236 16.33 85.7236 15.9464H87.9747C87.9747 16.6375 87.8562 17.2496 87.6221 17.78C87.3879 18.3103 87.0466 18.756 86.5953 19.1171C86.1467 19.4781 85.6136 19.7546 84.993 19.9464C84.3752 20.1382 83.6898 20.2369 82.9394 20.2369ZM79.9126 13.0578H85.6136C85.6136 12.4824 85.5487 12.0028 85.4246 11.6107C85.3005 11.2214 85.12 10.8998 84.883 10.6488C84.6489 10.3977 84.3668 10.2172 84.0424 10.1072C83.718 9.99717 83.3513 9.94075 82.9394 9.94075C82.3216 9.94075 81.7941 10.0508 81.3597 10.2736C80.9253 10.4936 80.5896 10.8378 80.3555 11.3004C80.1214 11.7659 79.9718 12.3498 79.9126 13.0578Z" fill="white"/>
<path d="M93.7998 20.237C92.8435 20.237 92.0227 20.0226 91.3372 19.5966C90.6517 19.1707 90.1242 18.5021 89.7462 17.5966C89.3682 16.6911 89.182 15.5176 89.182 14.0733C89.182 12.7024 89.371 11.5769 89.7575 10.6939C90.1411 9.811 90.6715 9.15655 91.3485 8.72778C92.0255 8.30183 92.8153 8.08744 93.7124 8.08744C94.2286 8.08744 94.7053 8.14668 95.1482 8.26234C95.5911 8.38081 95.9832 8.56417 96.3301 8.81523C96.6743 9.06628 96.9789 9.39633 97.2469 9.80818H97.3795V4H99.3231V19.969H97.7547L97.577 18.3131H97.4218C97.0241 18.9619 96.5078 19.4443 95.876 19.7602C95.2441 20.0762 94.553 20.237 93.7998 20.237ZM94.2652 18.536C95.0015 18.536 95.5967 18.3752 96.0537 18.0508C96.5107 17.7264 96.8464 17.2553 97.0579 16.6375C97.2723 16.0197 97.3795 15.2553 97.3795 14.3413V13.9887C97.3795 13.1932 97.3005 12.5219 97.1369 11.9774C96.9761 11.433 96.7533 10.9986 96.474 10.6742C96.1919 10.3498 95.8675 10.1213 95.5008 9.98871C95.1341 9.85613 94.742 9.79126 94.3301 9.79126C93.608 9.79126 93.0212 9.93512 92.5643 10.2228C92.1073 10.5106 91.7688 10.9591 91.5487 11.5712C91.3287 12.1834 91.2187 12.9732 91.2187 13.9464V14.4118C91.2187 15.4133 91.3372 16.22 91.5713 16.8293C91.8083 17.4415 92.1496 17.8787 92.5981 18.1439C93.0466 18.4006 93.6023 18.536 94.2652 18.536Z" fill="white"/>
<path d="M103.611 23.9915C103.049 23.9915 102.53 23.8702 102.054 23.6276C101.574 23.385 101.196 23.0465 100.917 22.6121C100.638 22.1777 100.497 21.6728 100.497 21.1001C100.497 20.4513 100.669 19.9012 101.016 19.4443C101.36 18.9873 101.8 18.6488 102.33 18.4287C101.946 18.268 101.653 18.0254 101.447 17.701C101.241 17.3766 101.14 17.024 101.14 16.6403C101.14 16.1382 101.323 15.7094 101.693 15.3484C102.062 14.9873 102.511 14.7475 103.041 14.629C102.556 14.3046 102.169 13.8928 101.882 13.3907C101.594 12.8885 101.45 12.3526 101.45 11.7771C101.45 11.055 101.619 10.4175 101.958 9.86739C102.296 9.3145 102.807 8.88009 103.492 8.56415C104.178 8.24821 105.032 8.09025 106.065 8.09025C106.553 8.09025 107.004 8.12691 107.425 8.20025C107.845 8.2736 108.223 8.38362 108.561 8.5303C109.078 8.3413 109.475 8.06486 109.755 7.70379C110.034 7.34271 110.217 6.94214 110.308 6.49927H111.898C111.884 6.91112 111.78 7.30886 111.588 7.6925C111.399 8.07614 111.131 8.39771 110.793 8.6657C110.454 8.93086 110.048 9.10012 109.577 9.17346C109.961 9.52607 110.24 9.92381 110.418 10.3667C110.595 10.8096 110.686 11.2807 110.686 11.7799C110.686 12.4711 110.519 13.0945 110.186 13.6474C109.853 14.2003 109.354 14.6375 108.686 14.9619C108.017 15.2863 107.157 15.4499 106.113 15.4499H104.279C103.836 15.4499 103.478 15.5345 103.196 15.7038C102.917 15.873 102.776 16.1579 102.776 16.5557C102.776 16.8942 102.922 17.1594 103.219 17.3512C103.515 17.543 103.882 17.6389 104.322 17.6389H108.872C109.726 17.6389 110.42 17.9266 110.959 18.4993C111.495 19.0747 111.766 19.794 111.766 20.6629C111.766 21.2806 111.611 21.8448 111.303 22.3526C110.993 22.8603 110.57 23.2609 110.034 23.5571C109.495 23.8505 108.866 24 108.147 24H103.611M103.963 22.7306H108.093C108.477 22.7306 108.824 22.6488 109.131 22.488C109.442 22.3244 109.687 22.1015 109.873 21.8138C110.056 21.5261 110.15 21.2214 110.15 20.897C110.15 20.3357 109.989 19.8871 109.664 19.5486C109.34 19.2101 108.934 19.0409 108.451 19.0409H103.966C103.467 19.0409 103.032 19.2214 102.663 19.5825C102.293 19.9436 102.11 20.3808 102.11 20.897C102.11 21.4555 102.291 21.9012 102.649 22.2341C103.01 22.5641 103.447 22.7306 103.963 22.7306ZM106.062 14.1833C107.095 14.1833 107.853 13.9661 108.35 13.5317C108.843 13.0973 109.089 12.5106 109.089 11.7743C109.089 11.024 108.841 10.4316 108.35 9.99715C107.856 9.56274 107.095 9.34553 106.062 9.34553C105.061 9.34553 104.31 9.56274 103.811 9.99715C103.312 10.4316 103.061 11.024 103.061 11.7743C103.061 12.2313 103.171 12.6431 103.391 13.0127C103.611 13.3794 103.946 13.6671 104.395 13.873C104.843 14.079 105.399 14.1833 106.062 14.1833Z" fill="white"/>
<path d="M116.934 20.2369C115.887 20.2369 114.993 20.0197 114.251 19.5853C113.506 19.1509 112.939 18.4852 112.55 17.5853C112.158 16.6883 111.966 15.5458 111.966 14.1608C111.966 12.7616 112.161 11.6192 112.55 10.7278C112.939 9.83638 113.518 9.17347 114.285 8.73905C115.049 8.30464 115.994 8.08743 117.111 8.08743C118.172 8.08743 119.058 8.30182 119.774 8.72777C120.488 9.15372 121.03 9.76304 121.396 10.5501C121.763 11.3371 121.949 12.268 121.949 13.3427V14.4485H113.092C113.092 15.6276 113.25 16.5726 113.566 17.2863C113.882 18 114.33 18.5134 114.914 18.8209C115.495 19.1312 116.192 19.2863 117.001 19.2863C117.678 19.2863 118.254 19.196 118.725 19.0211C119.196 18.8434 119.583 18.6093 119.884 18.3159C120.186 18.0226 120.415 17.684 120.57 17.3004C120.725 16.9168 120.807 16.5275 120.824 16.1297H121.839C121.825 16.629 121.724 17.1227 121.54 17.6107C121.357 18.0959 121.075 18.5388 120.691 18.9365C120.308 19.3343 119.808 19.6502 119.19 19.8871C118.57 20.1156 117.82 20.2369 116.934 20.2369ZM113.092 13.4979H120.844C120.844 12.6601 120.748 11.9549 120.556 11.3879C120.364 10.8209 120.096 10.3639 119.749 10.0169C119.402 9.67276 118.999 9.4217 118.533 9.26656C118.071 9.11141 117.557 9.03525 116.999 9.03525C116.189 9.03525 115.501 9.19322 114.934 9.50916C114.367 9.82509 113.927 10.3103 113.619 10.9675C113.312 11.6248 113.137 12.4682 113.092 13.4979Z" fill="white"/>
<path d="M130.567 16.8406V9.62762H134.364C134.874 9.62762 135.298 9.71789 135.636 9.90125C135.972 10.0846 136.223 10.3385 136.392 10.6629C136.561 10.9873 136.643 11.3681 136.643 11.8025C136.643 12.2849 136.533 12.708 136.316 13.0635C136.099 13.4217 135.791 13.684 135.391 13.8533L136.894 16.8406H135.614L134.245 14.0536H131.743V16.8406H130.567ZM131.743 13.0663H134.265C134.646 13.0663 134.937 12.9534 135.142 12.7306C135.348 12.5049 135.453 12.1946 135.453 11.7941C135.453 11.5486 135.408 11.3399 135.317 11.1678C135.224 10.9958 135.092 10.866 134.917 10.7729C134.742 10.6826 134.525 10.6375 134.265 10.6375H131.743V13.0663Z" fill="white"/>
<path d="M140.223 16.9676C139.656 16.9676 139.179 16.8632 138.798 16.6573C138.415 16.4485 138.127 16.1326 137.929 15.7038C137.732 15.275 137.636 14.7334 137.636 14.0733C137.636 13.4076 137.735 12.8632 137.929 12.4372C138.127 12.0141 138.417 11.6982 138.804 11.4922C139.188 11.2835 139.67 11.1819 140.243 11.1819C140.767 11.1819 141.207 11.2807 141.563 11.481C141.918 11.6812 142.186 11.9859 142.367 12.3921C142.547 12.7983 142.64 13.3117 142.64 13.9267V14.347H138.762C138.776 14.7391 138.835 15.0663 138.939 15.3286C139.044 15.591 139.205 15.7856 139.419 15.9069C139.633 16.031 139.904 16.0903 140.234 16.0903C140.437 16.0903 140.618 16.0649 140.781 16.0113C140.942 15.9577 141.078 15.8815 141.193 15.78C141.306 15.6784 141.394 15.5543 141.456 15.4104C141.518 15.2666 141.551 15.1058 141.551 14.9224H142.623C142.623 15.2525 142.567 15.543 142.454 15.7941C142.341 16.0451 142.178 16.2595 141.963 16.4316C141.749 16.6037 141.495 16.7334 141.202 16.8265C140.905 16.9224 140.581 16.9676 140.223 16.9676ZM138.781 13.5487H141.495C141.495 13.275 141.464 13.0465 141.405 12.8604C141.346 12.6742 141.261 12.5219 141.148 12.4034C141.035 12.2849 140.903 12.1975 140.748 12.1439C140.592 12.0931 140.417 12.0649 140.223 12.0649C139.929 12.0649 139.678 12.1185 139.472 12.2228C139.264 12.3272 139.106 12.4908 138.993 12.7137C138.88 12.9337 138.81 13.213 138.781 13.5487Z" fill="white"/>
<path d="M145.21 16.9676C145.035 16.9676 144.846 16.9478 144.643 16.9055C144.44 16.8632 144.248 16.787 144.071 16.6742C143.893 16.5614 143.746 16.4062 143.633 16.2059C143.52 16.0057 143.464 15.7461 143.464 15.4217C143.464 15.0437 143.552 14.7306 143.729 14.4852C143.904 14.2398 144.15 14.048 144.465 13.9069C144.781 13.7659 145.159 13.67 145.597 13.6136C146.034 13.5571 146.513 13.5289 147.032 13.5289V12.9817C147.032 12.7983 147.001 12.6375 146.942 12.4993C146.883 12.3611 146.773 12.2511 146.615 12.1721C146.457 12.0959 146.231 12.0564 145.935 12.0564C145.642 12.0564 145.413 12.0931 145.247 12.1664C145.083 12.2398 144.968 12.3329 144.9 12.4401C144.832 12.5501 144.801 12.6657 144.801 12.7927V12.9506H143.749C143.743 12.9168 143.74 12.8801 143.74 12.8463C143.74 12.8096 143.74 12.7701 143.74 12.7193C143.74 12.3893 143.834 12.11 144.02 11.8815C144.206 11.653 144.465 11.481 144.804 11.3625C145.14 11.244 145.529 11.1848 145.972 11.1848C146.449 11.1848 146.846 11.2525 147.165 11.3907C147.484 11.5261 147.724 11.7236 147.887 11.9746C148.048 12.2257 148.13 12.5332 148.13 12.8886V15.6954C148.13 15.8279 148.164 15.9239 148.229 15.9803C148.293 16.0367 148.375 16.0649 148.465 16.0649H148.846V16.8011C148.762 16.8378 148.657 16.8717 148.53 16.9055C148.403 16.9422 148.257 16.9591 148.087 16.9591C147.898 16.9591 147.738 16.9253 147.608 16.8604C147.478 16.7927 147.374 16.6996 147.292 16.5755C147.213 16.4514 147.157 16.3131 147.128 16.1608H147.063C146.937 16.3216 146.784 16.4626 146.606 16.5868C146.429 16.7109 146.223 16.804 145.992 16.8717C145.757 16.9337 145.498 16.9676 145.21 16.9676ZM145.515 16.0621C145.732 16.0621 145.932 16.0282 146.121 15.9633C146.307 15.8956 146.465 15.8026 146.601 15.6784C146.733 15.5543 146.838 15.4076 146.917 15.2356C146.993 15.0635 147.032 14.8773 147.032 14.6742V14.3075C146.55 14.3075 146.124 14.3357 145.76 14.3921C145.396 14.4485 145.111 14.5529 144.908 14.7024C144.705 14.8519 144.604 15.0607 144.604 15.3286C144.604 15.4894 144.64 15.6248 144.708 15.732C144.779 15.842 144.883 15.9239 145.024 15.9803C145.162 16.0339 145.326 16.0621 145.515 16.0621Z" fill="white"/>
<path d="M150.762 9.23834H149.67V16.8406H150.762V9.23834Z" fill="white"/>
<path d="M153.571 16.9675C153.255 16.9675 153.01 16.9055 152.829 16.7842C152.652 16.6629 152.525 16.5049 152.451 16.3103C152.378 16.1185 152.341 15.9125 152.341 15.6953V12.2144H151.647V11.3089H152.361L152.561 9.76303H153.433V11.3089H154.432V12.2144H153.433V15.5684C153.433 15.7292 153.467 15.8533 153.537 15.9351C153.608 16.0197 153.724 16.062 153.884 16.062H154.432V16.7983C154.361 16.8265 154.276 16.8519 154.175 16.8773C154.073 16.8998 153.969 16.9224 153.865 16.9393C153.76 16.9591 153.661 16.9675 153.571 16.9675Z" fill="white"/>
<path d="M156.268 18.756C156.056 18.756 155.881 18.7391 155.743 18.708C155.602 18.6742 155.515 18.6573 155.481 18.6488V17.859H156.006C156.161 17.859 156.316 17.8223 156.474 17.7546C156.632 17.6841 156.773 17.5712 156.9 17.4189C157.027 17.2638 157.131 17.0719 157.216 16.8406L155.061 11.3089H156.209L157.281 14.0649C157.329 14.1918 157.385 14.3498 157.444 14.5388C157.504 14.7278 157.563 14.9224 157.622 15.1171C157.681 15.3117 157.732 15.4894 157.774 15.6418H157.828C157.862 15.5374 157.898 15.4161 157.938 15.2807C157.977 15.1453 158.017 15.0014 158.059 14.8547C158.102 14.708 158.144 14.567 158.186 14.4288C158.228 14.2906 158.262 14.1749 158.291 14.0762L159.185 11.3117H160.299L158.426 16.6319C158.322 16.9253 158.206 17.2017 158.079 17.464C157.952 17.7236 157.805 17.9492 157.642 18.1411C157.475 18.3329 157.283 18.4852 157.058 18.5952C156.832 18.6996 156.57 18.756 156.268 18.756Z" fill="white"/>
</svg>
