<svg width="294" height="44" viewBox="0 0 294 44" fill="none" xmlns="http://www.w3.org/2000/svg">
<path d="M220.957 5.23877C221.396 5.23877 221.826 5.35256 222.244 5.57494C222.663 5.79732 222.989 6.12312 223.222 6.54202C223.455 6.96092 223.574 7.4005 223.574 7.8556C223.574 8.30553 223.455 8.73995 223.227 9.15885C223 9.57258 222.674 9.89839 222.26 10.1259C221.846 10.3535 221.412 10.4724 220.957 10.4724C220.507 10.4724 220.072 10.3587 219.653 10.1259C219.24 9.89839 218.914 9.57258 218.686 9.15885C218.454 8.73995 218.34 8.30553 218.34 7.8556C218.34 7.4005 218.459 6.96092 218.692 6.54202C218.924 6.12312 219.255 5.79732 219.669 5.57494C220.088 5.35256 220.517 5.23877 220.957 5.23877ZM220.957 5.67318C220.59 5.67318 220.233 5.76628 219.886 5.95763C219.54 6.14381 219.266 6.41273 219.069 6.7644C218.873 7.11607 218.774 7.47807 218.774 7.8556C218.774 8.23313 218.873 8.59514 219.064 8.94164C219.26 9.28814 219.529 9.55706 219.876 9.74841C220.222 9.94493 220.584 10.038 220.962 10.038C221.339 10.038 221.701 9.94493 222.048 9.74841C222.394 9.55706 222.663 9.28814 222.855 8.94164C223.046 8.59514 223.144 8.23313 223.144 7.8556C223.144 7.47807 223.046 7.1109 222.85 6.7644C222.653 6.41273 222.384 6.14381 222.032 5.95763C221.681 5.76628 221.324 5.67318 220.957 5.67318ZM219.809 9.30882V6.4903H220.776C221.107 6.4903 221.345 6.51616 221.495 6.56788C221.645 6.61959 221.763 6.70751 221.846 6.84197C221.934 6.97126 221.976 7.1109 221.976 7.25571C221.976 7.46257 221.903 7.64357 221.753 7.79354C221.608 7.94869 221.412 8.03144 221.169 8.05212C221.267 8.0935 221.35 8.14522 221.407 8.2021C221.52 8.31071 221.66 8.50205 221.82 8.76063L222.167 9.314H221.608L221.36 8.86925C221.164 8.52275 221.008 8.30553 220.884 8.21244C220.802 8.14521 220.677 8.11418 220.522 8.11418H220.253V9.30882H219.809ZM220.264 7.72115H220.812C221.076 7.72115 221.257 7.67977 221.35 7.6022C221.448 7.52462 221.495 7.42119 221.495 7.2919C221.495 7.20915 221.474 7.13158 221.427 7.06952C221.381 7.00229 221.314 6.95575 221.236 6.92472C221.153 6.89369 221.003 6.87817 220.781 6.87817H220.264V7.72115Z" fill="black"/>
<path d="M20.9398 20.945H0V0C11.5637 0.0051716 20.9398 9.38128 20.9398 20.945Z" fill="black"/>
<path d="M43.9794 0.00537109H23.0396V20.9504H43.9794V0.00537109Z" fill="black"/>
<path d="M20.9398 23.0391H0V43.9841H20.9398V23.0391Z" fill="black"/>
<path d="M43.9794 43.9841C32.4157 43.9841 23.0396 34.6079 23.0396 23.0391H43.9794V43.9841Z" fill="black"/>
<path d="M56.5412 36.6153V8.75586H64.1538L72.8214 18.7577C73.0645 19.0267 73.3903 19.4197 73.7937 19.9317C74.1971 20.4437 74.6108 20.966 75.0297 21.4935C75.4486 22.021 75.764 22.4451 75.9813 22.7657L76.183 22.683C76.1571 21.9279 76.1467 21.178 76.1467 20.4385C76.1467 19.6938 76.1467 19.1353 76.1467 18.7577V8.75586H84.2868V36.6153H76.7156L66.9568 25.4808C66.4965 24.943 66.1087 24.4465 65.7829 24.0017C65.457 23.557 65.1467 23.1329 64.8468 22.7243L64.6451 22.8071C64.671 23.3191 64.6865 23.8363 64.6865 24.3482C64.6865 24.8602 64.6865 25.2378 64.6865 25.4808V36.6153H56.5412Z" fill="black"/>
<path d="M99.2069 37.1013C96.7763 37.1013 94.7128 36.7031 93.0114 35.9067C91.3099 35.1103 90.0066 33.8898 89.1068 32.24C88.2018 30.5954 87.7518 28.4906 87.7518 25.9255C87.7518 23.4172 88.1966 21.3383 89.0861 19.6885C89.9756 18.044 91.2582 16.8131 92.9338 16.0063C94.6094 15.1944 96.6211 14.791 98.969 14.791C101.291 14.791 103.251 15.1841 104.859 15.965C106.463 16.7459 107.688 17.9509 108.526 19.5696C109.364 21.1883 109.783 23.2828 109.783 25.8479V27.2649H94.4749C94.4749 28.3975 94.6352 29.3543 94.961 30.1403C95.2817 30.9213 95.7833 31.516 96.4608 31.9245C97.1331 32.3279 98.0381 32.5348 99.1759 32.5348C99.8482 32.5348 100.443 32.452 100.96 32.2917C101.472 32.1262 101.907 31.8935 102.253 31.5832C102.6 31.2729 102.874 30.9006 103.065 30.4661C103.256 30.0369 103.349 29.5456 103.349 29.0078H109.788C109.788 30.3058 109.555 31.4591 109.08 32.4676C108.604 33.4812 107.911 34.3293 106.995 35.0172C106.08 35.705 104.963 36.2273 103.655 36.579C102.331 36.9203 100.851 37.1013 99.2069 37.1013ZM94.5059 23.5724H103.008C103.008 22.8691 102.92 22.2588 102.744 21.7313C102.568 21.2038 102.31 20.7694 101.974 20.4125C101.632 20.0609 101.229 19.7971 100.758 19.6213C100.288 19.4455 99.7396 19.3576 99.119 19.3576C98.1468 19.3576 97.3348 19.523 96.6884 19.8437C96.0419 20.1695 95.5403 20.6401 95.1938 21.2607C94.8421 21.8865 94.6145 22.657 94.5059 23.5724Z" fill="black"/>
<path d="M116.501 36.6146L109.819 15.3128H115.73L118.404 25.7594C118.538 26.2973 118.668 26.8817 118.787 27.5023C118.911 28.1229 119.024 28.6762 119.133 29.1623C119.242 29.6485 119.319 30.0001 119.376 30.2122H119.661C119.769 29.6743 119.883 29.1106 120.002 28.5314C120.126 27.947 120.245 27.3988 120.369 26.8713C120.488 26.3438 120.576 25.9456 120.628 25.6767L123.177 15.3076H129.047L131.679 25.7129C131.788 26.0904 131.897 26.5559 132 27.1092C132.109 27.6626 132.228 28.2159 132.362 28.7693C132.496 29.3227 132.605 29.8036 132.688 30.207H132.931C132.983 29.8295 133.07 29.3847 133.195 28.8727C133.314 28.3608 133.438 27.8333 133.557 27.2954C133.676 26.7524 133.795 26.2714 133.898 25.837L136.53 15.3076H141.96L135.32 36.6095H129.528L127.18 27.0937C127.077 26.5817 126.942 26.0077 126.777 25.3716C126.616 24.7406 126.472 24.1097 126.353 23.4891C126.228 22.8685 126.13 22.3307 126.047 21.8704H125.804C125.804 22.1134 125.748 22.4858 125.639 22.9823C125.53 23.4839 125.406 24.0735 125.256 24.7665C125.106 25.4543 124.925 26.23 124.708 27.0937L122.277 36.6095H116.501" fill="black"/>
<path d="M152.056 37.1012C149.868 37.1012 148.042 36.703 146.569 35.9066C145.095 35.1102 143.983 33.8897 143.228 32.2399C142.473 30.5954 142.095 28.5009 142.095 25.9616C142.095 23.3965 142.473 21.2968 143.228 19.6678C143.983 18.0336 145.105 16.8182 146.589 16.0218C148.073 15.2254 149.92 14.8271 152.138 14.8271C154.16 14.8271 155.857 15.2099 157.222 15.9804C158.582 16.751 159.616 17.9146 160.32 19.4816C161.023 21.0486 161.37 23.019 161.37 25.3927V27.0114H146.429C146.481 28.5216 146.713 29.7834 147.122 30.7971C147.525 31.8107 148.141 32.5502 148.963 33.0208C149.785 33.4966 150.835 33.7294 152.102 33.7294C152.883 33.7294 153.586 33.6311 154.207 33.4242C154.828 33.2225 155.355 32.9226 155.784 32.5347C156.214 32.1417 156.55 31.6711 156.798 31.1177C157.041 30.5643 157.16 29.9386 157.16 29.2352H161.287C161.287 30.5023 161.07 31.6245 160.64 32.5968C160.211 33.569 159.585 34.3862 158.758 35.0481C157.936 35.7101 156.958 36.2169 155.821 36.5686C154.688 36.9202 153.431 37.1012 152.056 37.1012ZM146.506 23.9395H156.958C156.958 22.8845 156.839 22.0053 156.612 21.2865C156.384 20.5728 156.053 19.9832 155.619 19.523C155.19 19.0627 154.672 18.7317 154.078 18.53C153.483 18.3283 152.811 18.2249 152.056 18.2249C150.923 18.2249 149.956 18.4266 149.16 18.8351C148.363 19.2385 147.748 19.8695 147.318 20.7176C146.889 21.5709 146.615 22.6414 146.506 23.9395Z" fill="black"/>
<path d="M171.966 37.1012C170.213 37.1012 168.708 36.7082 167.451 35.9273C166.195 35.1464 165.228 33.9207 164.535 32.2606C163.842 30.6005 163.5 28.4491 163.5 25.8013C163.5 23.2879 163.847 21.2244 164.555 19.6057C165.259 17.987 166.231 16.7872 167.472 16.0011C168.713 15.2202 170.161 14.8271 171.806 14.8271C172.752 14.8271 173.626 14.9357 174.438 15.1478C175.25 15.365 175.969 15.7011 176.605 16.1614C177.236 16.6217 177.795 17.2268 178.286 17.9818H178.529V7.3335H182.092V36.6099H179.217L178.891 33.5742H178.607C177.877 34.7637 176.931 35.648 175.773 36.2272C174.614 36.8065 173.347 37.1012 171.966 37.1012ZM172.82 33.9828C174.169 33.9828 175.261 33.688 176.098 33.0933C176.936 32.4985 177.552 31.6349 177.939 30.5023C178.333 29.3697 178.529 27.9682 178.529 26.2926V25.6461C178.529 24.1878 178.384 22.9569 178.084 21.9588C177.79 20.9607 177.381 20.1642 176.869 19.5695C176.352 18.9748 175.757 18.5559 175.085 18.3128C174.412 18.0697 173.694 17.9508 172.939 17.9508C171.615 17.9508 170.539 18.2145 169.701 18.7421C168.863 19.2696 168.243 20.0918 167.839 21.2141C167.436 22.3363 167.234 23.7844 167.234 25.5686V26.4219C167.234 28.2578 167.451 29.7369 167.881 30.8539C168.315 31.9762 168.941 32.7778 169.763 33.2639C170.585 33.7345 171.604 33.9828 172.82 33.9828Z" fill="black"/>
<path d="M189.953 43.9851C188.924 43.9851 187.972 43.7628 187.098 43.318C186.219 42.8732 185.526 42.2526 185.014 41.4562C184.502 40.6598 184.244 39.7341 184.244 38.6842C184.244 37.4948 184.559 36.4863 185.195 35.6485C185.826 34.8107 186.633 34.1901 187.605 33.7867C186.902 33.492 186.364 33.0472 185.986 32.4524C185.609 31.8577 185.423 31.2113 185.423 30.5079C185.423 29.5874 185.759 28.8013 186.436 28.1393C187.114 27.4774 187.936 27.0378 188.908 26.8206C188.019 26.2258 187.31 25.4708 186.783 24.5502C186.255 23.6297 185.992 22.6471 185.992 21.5921C185.992 20.2682 186.302 19.0994 186.923 18.0909C187.543 17.0773 188.479 16.2809 189.736 15.7016C190.993 15.1224 192.56 14.8328 194.452 14.8328C195.347 14.8328 196.175 14.9 196.945 15.0345C197.716 15.169 198.409 15.3707 199.029 15.6396C199.976 15.2931 200.705 14.7863 201.217 14.1243C201.729 13.4623 202.065 12.728 202.23 11.916H205.147C205.121 12.6711 204.93 13.4003 204.578 14.1036C204.232 14.8069 203.741 15.3965 203.12 15.8878C202.499 16.3739 201.755 16.6842 200.891 16.8187C201.594 17.4652 202.106 18.1943 202.432 19.0063C202.758 19.8182 202.923 20.6819 202.923 21.5973C202.923 22.8643 202.618 24.0072 202.008 25.0209C201.398 26.0345 200.482 26.8361 199.257 27.4308C198.031 28.0256 196.454 28.3255 194.54 28.3255H191.179C190.367 28.3255 189.71 28.4807 189.193 28.791C188.681 29.1013 188.422 29.6236 188.422 30.3528C188.422 30.9734 188.691 31.4595 189.234 31.8112C189.777 32.1628 190.45 32.3387 191.256 32.3387H199.598C201.165 32.3387 202.437 32.8662 203.425 33.916C204.408 34.971 204.904 36.2898 204.904 37.8826C204.904 39.0152 204.62 40.0495 204.056 40.9804C203.487 41.9113 202.711 42.6457 201.729 43.1887C200.741 43.7265 199.588 44.0006 198.269 44.0006H189.953M190.6 41.6734H198.171C198.874 41.6734 199.51 41.5234 200.074 41.2287C200.643 40.9287 201.093 40.5202 201.434 39.9927C201.77 39.4652 201.941 38.9066 201.941 38.3119C201.941 37.2827 201.646 36.4605 201.051 35.8399C200.457 35.2193 199.712 34.909 198.828 34.909H190.605C189.689 34.909 188.893 35.24 188.215 35.9019C187.538 36.5639 187.202 37.3655 187.202 38.3119C187.202 39.3359 187.533 40.153 188.19 40.7632C188.852 41.3683 189.653 41.6734 190.6 41.6734ZM194.447 26.0035C196.34 26.0035 197.731 25.6052 198.641 24.8088C199.546 24.0124 199.996 22.9367 199.996 21.5869C199.996 20.2113 199.541 19.1252 198.641 18.3288C197.736 17.5324 196.34 17.1342 194.447 17.1342C192.611 17.1342 191.236 17.5324 190.32 18.3288C189.405 19.1252 188.945 20.2113 188.945 21.5869C188.945 22.4247 189.146 23.1798 189.55 23.8572C189.953 24.5296 190.568 25.0571 191.391 25.4346C192.213 25.8121 193.232 26.0035 194.447 26.0035Z" fill="black"/>
<path d="M214.379 37.1012C212.46 37.1012 210.821 36.703 209.46 35.9066C208.095 35.1102 207.056 33.8897 206.342 32.2399C205.623 30.5954 205.271 28.5009 205.271 25.9616C205.271 23.3965 205.628 21.302 206.342 19.6678C207.056 18.0336 208.116 16.8182 209.522 16.0218C210.924 15.2254 212.656 14.8271 214.704 14.8271C216.649 14.8271 218.273 15.2202 219.586 16.0011C220.895 16.782 221.888 17.8991 222.56 19.342C223.232 20.7848 223.574 22.4915 223.574 24.4618V26.4891H207.335C207.335 28.6508 207.624 30.3833 208.204 31.6918C208.783 33.0002 209.605 33.9414 210.676 34.5051C211.741 35.074 213.018 35.3584 214.503 35.3584C215.744 35.3584 216.799 35.1929 217.663 34.8723C218.526 34.5465 219.235 34.1172 219.788 33.5794C220.341 33.0415 220.76 32.4209 221.045 31.7176C221.329 31.0143 221.479 30.3006 221.51 29.5714H223.372C223.346 30.4868 223.16 31.3918 222.824 32.2865C222.488 33.176 221.97 33.9879 221.267 34.7171C220.564 35.4463 219.648 36.0255 218.516 36.46C217.378 36.8789 216.002 37.1012 214.379 37.1012ZM207.335 24.7463H221.546C221.546 23.2103 221.371 21.9174 221.019 20.8779C220.667 19.8384 220.176 19.0006 219.54 18.3645C218.904 17.7336 218.164 17.2733 217.311 16.9889C216.463 16.7044 215.521 16.5648 214.498 16.5648C213.013 16.5648 211.751 16.8544 210.712 17.4336C209.672 18.0129 208.866 18.9024 208.302 20.1074C207.738 21.3123 207.418 22.8586 207.335 24.7463Z" fill="black"/>
<path d="M239.373 30.8742V17.6504H246.334C247.27 17.6504 248.046 17.8159 248.666 18.152C249.282 18.4882 249.742 18.9536 250.052 19.5484C250.363 20.1431 250.512 20.8413 250.512 21.6377C250.512 22.5221 250.311 23.2978 249.913 23.9494C249.514 24.6062 248.951 25.0872 248.216 25.3975L250.973 30.8742H248.625L246.117 25.7646H241.529V30.8742H239.373ZM241.529 23.9546H246.153C246.851 23.9546 247.384 23.7477 247.761 23.3392C248.139 22.9254 248.33 22.3566 248.33 21.6222C248.33 21.1723 248.247 20.7896 248.082 20.4741C247.911 20.1586 247.668 19.9207 247.347 19.7501C247.027 19.5846 246.629 19.5018 246.153 19.5018H241.529V23.9546Z" fill="black"/>
<path d="M257.075 31.1065C256.036 31.1065 255.162 30.9151 254.464 30.5376C253.76 30.1549 253.233 29.5757 252.871 28.7896C252.509 28.0035 252.333 27.0106 252.333 25.8004C252.333 24.5799 252.514 23.5818 252.871 22.8009C253.233 22.0251 253.765 21.4459 254.474 21.0684C255.177 20.6857 256.062 20.4995 257.111 20.4995C258.073 20.4995 258.88 20.6805 259.532 21.0477C260.183 21.4149 260.675 21.9734 261.006 22.7181C261.337 23.4628 261.507 24.4041 261.507 25.5315V26.3021H254.396C254.422 27.0209 254.531 27.6208 254.722 28.1018C254.914 28.5827 255.208 28.9396 255.601 29.1619C255.994 29.3895 256.491 29.4981 257.096 29.4981C257.468 29.4981 257.799 29.4516 258.099 29.3533C258.394 29.255 258.642 29.1154 258.854 28.9292C259.061 28.743 259.221 28.5155 259.335 28.2517C259.449 27.988 259.511 27.6932 259.511 27.3571H261.476C261.476 27.9621 261.373 28.4948 261.166 28.9551C260.959 29.4154 260.659 29.8084 260.266 30.1239C259.873 30.4393 259.408 30.6772 258.87 30.8479C258.327 31.0237 257.732 31.1065 257.075 31.1065ZM254.433 24.8385H259.408C259.408 24.3368 259.351 23.9179 259.242 23.5766C259.134 23.2353 258.978 22.956 258.772 22.7388C258.565 22.5216 258.322 22.3613 258.037 22.263C257.753 22.1699 257.432 22.1182 257.075 22.1182C256.537 22.1182 256.077 22.2165 255.7 22.4078C255.317 22.5992 255.027 22.8991 254.82 23.3077C254.614 23.7111 254.484 24.2231 254.433 24.8385Z" fill="black"/>
<path d="M266.219 31.1067C265.898 31.1067 265.552 31.0705 265.179 30.9929C264.807 30.9153 264.455 30.7757 264.129 30.5688C263.804 30.362 263.535 30.0775 263.328 29.7103C263.121 29.3431 263.017 28.8674 263.017 28.2726C263.017 27.5796 263.178 27.0056 263.504 26.5557C263.824 26.1057 264.274 25.7541 264.853 25.4955C265.433 25.2369 266.126 25.0611 266.927 24.9576C267.729 24.8542 268.608 24.8025 269.56 24.8025V23.7992C269.56 23.463 269.503 23.1683 269.394 22.9149C269.285 22.6614 269.084 22.4597 268.794 22.3149C268.505 22.1753 268.091 22.1029 267.548 22.1029C267.01 22.1029 266.591 22.1701 266.286 22.3046C265.986 22.4391 265.774 22.6097 265.65 22.8062C265.526 23.0079 265.469 23.22 265.469 23.4527V23.7423H263.54C263.529 23.6802 263.524 23.613 263.524 23.5509C263.524 23.4837 263.524 23.4113 263.524 23.3182C263.524 22.7132 263.695 22.2012 264.036 21.7823C264.378 21.3634 264.853 21.0479 265.474 20.8307C266.089 20.6135 266.803 20.5049 267.615 20.5049C268.489 20.5049 269.218 20.629 269.803 20.8824C270.387 21.1306 270.827 21.4927 271.127 21.9529C271.421 22.4132 271.571 22.9769 271.571 23.6285V28.7743C271.571 29.0173 271.633 29.1932 271.752 29.2966C271.871 29.4 272.021 29.4518 272.187 29.4518H272.885V30.8015C272.73 30.8688 272.538 30.9308 272.306 30.9929C272.073 31.0601 271.804 31.0912 271.494 31.0912C271.147 31.0912 270.852 31.0291 270.615 30.9101C270.377 30.786 270.185 30.6154 270.035 30.3878C269.891 30.1603 269.787 29.9069 269.735 29.6276H269.616C269.384 29.9224 269.104 30.181 268.779 30.4085C268.453 30.6361 268.075 30.8067 267.651 30.9308C267.222 31.0446 266.746 31.1067 266.219 31.1067ZM266.777 29.4466C267.175 29.4466 267.543 29.3845 267.889 29.2656C268.23 29.1415 268.52 28.9708 268.768 28.7432C269.011 28.5157 269.203 28.2468 269.348 27.9313C269.487 27.6158 269.56 27.2745 269.56 26.9022V26.2298C268.675 26.2298 267.894 26.2816 267.227 26.385C266.56 26.4884 266.038 26.6798 265.665 26.9539C265.293 27.228 265.107 27.6107 265.107 28.102C265.107 28.3968 265.174 28.645 265.298 28.8415C265.427 29.0432 265.619 29.1932 265.877 29.2966C266.131 29.3949 266.431 29.4466 266.777 29.4466Z" fill="black"/>
<path d="M276.396 16.937H274.395V30.8745H276.396V16.937Z" fill="black"/>
<path d="M281.547 31.1077C280.968 31.1077 280.518 30.9939 280.187 30.7715C279.861 30.5491 279.629 30.2595 279.494 29.9027C279.36 29.551 279.292 29.1735 279.292 28.7753V22.3935H278.02V20.7335H279.329L279.696 17.8994H281.294V20.7335H283.125V22.3935H281.294V28.5426C281.294 28.8373 281.356 29.0649 281.485 29.2149C281.615 29.37 281.827 29.4476 282.121 29.4476H283.125V30.7974C282.995 30.8491 282.84 30.8957 282.654 30.9422C282.468 30.9836 282.276 31.0249 282.085 31.056C281.894 31.0922 281.713 31.1077 281.547 31.1077Z" fill="black"/>
<path d="M286.491 34.3864C286.103 34.3864 285.783 34.3554 285.529 34.2985C285.271 34.2364 285.11 34.2054 285.048 34.1899V32.7419H286.01C286.295 32.7419 286.579 32.6746 286.869 32.5505C287.158 32.4212 287.417 32.2143 287.65 31.9351C287.882 31.6506 288.074 31.299 288.229 30.8749L284.278 20.7334H286.383L288.348 25.7861C288.436 26.0188 288.539 26.3084 288.648 26.6549C288.756 27.0014 288.865 27.3582 288.974 27.7151C289.082 28.0719 289.175 28.3977 289.253 28.677H289.351C289.413 28.4856 289.481 28.2632 289.553 28.015C289.625 27.7668 289.698 27.503 289.775 27.2341C289.853 26.9652 289.93 26.7066 290.008 26.4532C290.086 26.1998 290.148 25.9877 290.199 25.8067L291.839 20.7386H293.882L290.448 30.4922C290.256 31.0301 290.044 31.5369 289.811 32.0178C289.579 32.4936 289.31 32.9074 289.01 33.259C288.705 33.6107 288.353 33.89 287.939 34.0916C287.526 34.283 287.045 34.3864 286.491 34.3864Z" fill="black"/>
</svg>
