<svg id="Layer_1" height="512" viewBox="0 0 64 64" width="512" xmlns="http://www.w3.org/2000/svg"><g><path d="m58 46.2c-.3-.3-.7-.4-1-.4s-.8.1-1 .4l-.7.7.4 3.9 2.3-2.4c.6-.6.6-1.6 0-2.2zm-3.5 12.4-2.3-19.3v-.1l-.7-6.4-.9-6.1c-.1-.9-1.1-1.2-1.8-.6l-10.8 9.9c-.4.4-.5.9-.2 1.4 4.2 6.5 10 17.2 13.6 25.9.1.1.1.2.2.3.3.3.8.4 1.2 0 1.3-1.3 1.9-3.1 1.7-5zm-27.7.7-2.7-9.3c-.2-.6-.9-.9-1.5-.7-1 .5-2.2.9-3.4 1.1-.7.1-1.1 1-.7 1.6l5.8 8.7c.4.6 1.2.6 1.6.2l.5-.5c.4-.4.5-.8.4-1.1zm-7.8-15c-.1-.1-.3-.2-.5-.2s-.4.1-.5.2l-6 6.1c-.3.3-.3.7 0 .9.2.3.7.3.9 0l6.1-6.1c.3-.2.3-.7 0-.9zm-5.6-4.8-8.7-2.1c-.4-.1-.7 0-1 .3l-.6.6c-.5.5-.4 1.3.1 1.6l8 5.4c.7.4 1.5.1 1.7-.7.2-1.2.7-2.5 1.2-3.6.3-.6 0-1.3-.7-1.5zm23.3-25.7-5.8-.9-6.4-.7-19.3-2.3c-1.8-.2-3.6.4-4.9 1.7-.4.4-.3.9 0 1.2.1.1.1.1.3.2 8.1 3.3 18.5 9.1 25.3 13.5.4.3 1 .2 1.3-.2l10.1-10.7c.6-.6.2-1.6-.6-1.8zm-19.1-7.5c-.6-.6-1.6-.6-2.2 0l-2.4 2.3 3.8.4.7-.7c.3-.3.4-.7.4-1 .1-.3 0-.7-.3-1zm13.4 2c-.6-.6-1.6-.6-2.2 0l-2 1.9 3.8.4.3-.3c.7-.5.7-1.4.1-2zm32.2-7.3c-2.2-2.2-9.4.5-13 4l-32.9 34.9c-.7.7-1.6 2.4-2 4.2l1.3-1.3c1.1-1.1 2.9-1.1 4 0s1.1 2.9 0 4l-1.6 1.4c1.9-.4 3.8-1.4 4.6-2.1l35.5-32.4c2.7-2.6 4.9-7.2 4.9-10.3 0-1.1-.3-1.9-.8-2.4zm-4.6 8.6c-.1 0-.1 0 0 0-.6 0-1.1-.4-1.2-.9-.1-.4-.4-1.6-1.9-1.7h-.3c-.6 0-1.1-.5-1-1.1s.5-1.1 1.1-1.1h.3c2.1.1 3.6 1.5 3.9 3.6.1.6-.4 1.1-.9 1.2zm-2.5 23.2c-.3-.3-.7-.4-1-.4s-.8.2-1 .4l-.3.3.4 3.8 1.9-2c.5-.5.5-1.5 0-2.1z" fill="rgb(0,0,0)"/></g></svg>