<svg id="Capa_1" enable-background="new 0 0 512 512" height="512" viewBox="0 0 512 512" width="512" xmlns="http://www.w3.org/2000/svg"><g><path d="m480.015 424.146c-3.9-23.284-13.015-81.984-13.015-122.146 0-49.937 14.268-100.356 14.414-100.869 2.909-10.06-5.38-20.555-16.465-18.984-.527.073-53.965 7.354-87.949 7.354-33.926 0-87.422-7.28-87.949-7.354-10.795-1.564-19.439 8.684-16.465 18.999.146.498 14.414 50.756 14.414 100.854 0 38.97-8.584 95.403-12.656 120h-124.344v-135c0-8.291-6.709-15-15-15h-120c-8.291 0-15 6.709-15 15v180c0 24.814 20.186 45 45 45h422c24.814 0 45-20.186 45-45 0-20.259-13.542-37.231-31.985-42.854zm-128.62-102.751 30-30c5.859-5.859 15.352-5.859 21.211 0s5.859 15.352 0 21.211l-30 30c-5.859 5.859-15.351 5.86-21.211 0s-5.86-15.352 0-21.211zm-136.632 130.605c-1.681 4.715-2.763 9.716-2.763 15s1.082 10.285 2.763 15h-127.526c1.681-4.715 2.763-9.716 2.763-15s-1.082-10.285-2.763-15c4.639 0 131.981 0 127.526 0zm84.474 0h125.526c-1.681 4.715-2.763 9.716-2.763 15s1.082 10.285 2.763 15h-125.526c1.681-4.715 2.763-9.716 2.763-15s-1.082-10.285-2.763-15z"/><path d="m361 90h-15c-24.814 0-45 20.186-45 45 0 8.291 6.709 15 15 15s15-6.709 15-15c0-8.276 6.738-15 15-15h60c8.262 0 15 6.724 15 15 0 8.291 6.709 15 15 15s15-6.709 15-15c0-24.814-20.186-45-45-45h-15c0-4.545 0-79.455 0-75 0-8.291-6.709-15-15-15h-195v118.997c35.715-23.688 98.06-54.756 180-58.303z"/><path d="m15 150h120c8.291 0 15-6.709 15-15v-120c0-8.291-6.709-15-15-15h-120c-8.291 0-15 6.709-15 15v120c0 8.291 6.709 15 15 15zm60-90c8.284 0 15 6.714 15 15 0 8.284-6.716 15-15 15s-15-6.716-15-15c0-8.286 6.716-15 15-15z"/><path d="m30 182h90v60h-90z"/></g></svg>