<?xml version="1.0"?>
<svg xmlns="http://www.w3.org/2000/svg" data-name="Layer 1" id="Layer_1" viewBox="0 0 128 128"><title/><path d="M64,85A30,30,0,1,0,33.9664,55,30.05089,30.05089,0,0,0,64,85Zm0-56A26,26,0,1,1,37.97092,55,26.04343,26.04343,0,0,1,64,29Z"/><path d="M67.50394,65H56.99216a2,2,0,1,0,0,4h5.00562v2.5a2.00223,2.00223,0,0,0,4.00446,0V69h1.50171a5.27783,5.27783,0,0,0,5.50616-5V58a5.27783,5.27783,0,0,0-5.50616-5H60.49606c-.88477,0-1.50165-.52734-1.50165-1V46c0-.47266.61688-1,1.50165-1H71.00784a2,2,0,1,0,0-4H66.00223V38.5a2.00223,2.00223,0,0,0-4.00446,0V41H60.49606A5.27782,5.27782,0,0,0,54.99,46v6a5.27782,5.27782,0,0,0,5.5061,5h7.00787c.88477,0,1.50165.52734,1.50165,1v6C69.00558,64.47266,68.3887,65,67.50394,65Z"/><path d="M102.50888,91.15332a3.9742,3.9742,0,0,0-3.74438-2.582H88.64865V78.408a33.97518,33.97518,0,0,1-49.2973-.00061V88.57129H29.23557a3.99936,3.99936,0,0,0-2.65533,6.99414l36.0921,31.93164a2.0039,2.0039,0,0,0,2.65533,0l36.0921-31.93164A3.96632,3.96632,0,0,0,102.50888,91.15332Z"/><path d="M63.99985,21a33.94848,33.94848,0,0,1,24.6488,10.592V6a6.00991,6.00991,0,0,0-6.00671-6H45.35806a6.00991,6.00991,0,0,0-6.00671,6V31.59265A33.94711,33.94711,0,0,1,63.99985,21ZM79.743,10h4a1.97878,1.97878,0,0,1,.87793.21118v3.57764A1.97878,1.97878,0,0,1,83.743,14h-4a2,2,0,0,1,0-4Zm-12,0h4a2,2,0,0,1,0,4h-4a2,2,0,0,1,0-4Zm-12,0h4a2,2,0,0,1,0,4h-4a2,2,0,0,1,0-4Zm-12.36328.03662A2.0013,2.0013,0,0,1,43.743,10h4a2,2,0,0,1,0,4h-4a2.0013,2.0013,0,0,1-.36328-.03662Z"/></svg>
