<svg id="Layer_1" enable-background="new 0 0 68 68" height="512" viewBox="0 0 68 68" width="512" xmlns="http://www.w3.org/2000/svg"><g><path d="m9.6049 24.97472h11.82838v2.78318c0 .573-.4707 1.0437-1.0437 1.0437h-1.39156v20.58711h1.39156c.573 0 1.0437.46046 1.0437 1.04364v2.78318h-11.82838v-2.78318c0-.58318.47064-1.04364 1.0437-1.04364h1.39156v-20.58711h-1.39156c-.57306 0-1.0437-.4707-1.0437-1.0437z"/><path d="m28.08418 24.97472h11.82838v2.78318c0 .573-.4707 1.0437-1.0437 1.0437h-1.39156v20.58711h1.39156c.573 0 1.0437.46046 1.0437 1.04364v2.78318h-11.82838v-2.78318c0-.58318.4707-1.04364 1.0437-1.04364h1.39156v-20.58711h-1.39156c-.573 0-1.0437-.4707-1.0437-1.0437z"/><path d="m55.9566 49.38871h1.39156c.573 0 1.0437.46046 1.0437 1.04364v2.78318h-11.82839v-2.78318c0-.58318.4707-1.04364 1.0437-1.04364h1.39156v-20.58711h-1.39156c-.573 0-1.0437-.4707-1.0437-1.0437v-2.78318h11.82838v2.78318c0 .573-.4707 1.0437-1.0437 1.0437h-1.39155z"/><path d="m61.92197 56.5205v2.68082h-55.83694v-2.68082c0-.69578.56276-1.25854 1.25854-1.25854h53.3198c.69584 0 1.2586.56276 1.2586 1.25854z"/><path d="m65.55693 64.73904v-2.23461c0-.69641-.56455-1.26096-1.26096-1.26096h-60.59194c-.69641 0-1.26096.56455-1.26096 1.26096v2.23461c0 .69641.56455 1.26096 1.26096 1.26096h60.59193c.69642 0 1.26097-.56455 1.26097-1.26096z"/><path d="m32.7543 2.32011-27.05927 14.777c-.40301.22008-.6537.64263-.6537 1.10181v3.47396c0 .69333.56206 1.25539 1.2554 1.25539h55.41349c.69334 0 1.25539-.56206 1.25539-1.25539v-3.47408c0-.45912-.25062-.88161-.65354-1.10172l-27.0493-14.77678c-.78163-.427-1.72678-.42707-2.50847-.00019zm1.25327 15.04352c-2.26638 0-4.10899-1.84262-4.10899-4.10899 0-2.26644 1.84262-4.10905 4.10899-4.10905 2.25721 0 4.09061 1.84261 4.09061 4.10905 0 2.26638-1.8334 4.10899-4.09061 4.10899z"/></g></svg>