<svg id="Layer_1" height="512" viewBox="0 0 48 48" width="512" xmlns="http://www.w3.org/2000/svg" data-name="Layer 1"><path d="m43.46 26.24a25.071 25.071 0 0 1 -5.08-1.91q-.75-.375-1.38-.72c-.83-.46-1.49-.87-1.92-1.15a.3.3 0 0 0 -.08-.04 2 2 0 0 0 -2.08.04 29.7 29.7 0 0 1 -8.38 3.78 2.016 2.016 0 0 0 -1.54 1.95v1.71a14.986 14.986 0 0 0 6.68 12.48l.93.62 2.28 1.52a1.935 1.935 0 0 0 .59.26h.01a1.472 1.472 0 0 0 .51.08 2.039 2.039 0 0 0 1.11-.34l3.21-2.14a14.986 14.986 0 0 0 6.68-12.48v-1.71a2.016 2.016 0 0 0 -1.54-1.95zm-5.75 5.47-4 4a1.014 1.014 0 0 1 -1.42 0l-2-2a1 1 0 0 1 1.42-1.42l1.29 1.3 3.29-3.3a1 1 0 0 1 1.42 1.42z"/><path d="m35.58 13.24-8.55-8.74a4.994 4.994 0 0 0 -1.03-.8v7.3a3.009 3.009 0 0 0 3 3h7.19a5.49 5.49 0 0 0 -.61-.76zm1.36 2.76h-7.94a5 5 0 0 1 -5-5v-7.96a3.272 3.272 0 0 0 -.54-.04h-15.46a5 5 0 0 0 -5 5v32a5 5 0 0 0 5 5h22.01l-1.44-.96a16.967 16.967 0 0 1 -7.57-14.14v-1.71a4 4 0 0 1 1.59-3.19h-12.59a1 1 0 0 1 0-2h17.74a31.621 31.621 0 0 0 4.09-2.22 4.04 4.04 0 0 1 3.96-.21l.07.03.3.18c.21.14.49.31.84.52v-4.56a4.524 4.524 0 0 0 -.06-.74zm-15.94 20a1 1 0 0 1 -1 1h-10a1 1 0 0 1 0-2h10a1 1 0 0 1 1 1zm-11-7h8a1 1 0 0 1 0 2h-8a1 1 0 0 1 0-2zm0-18h8a1 1 0 0 1 0 2h-8a1 1 0 0 1 0-2zm14 8h-14a1 1 0 0 1 0-2h14a1 1 0 0 1 0 2z"/></svg>