<svg id="Capa_1" enable-background="new 0 0 512 512" height="512" viewBox="0 0 512 512" width="512" xmlns="http://www.w3.org/2000/svg"><g><path d="m497 30c8.291 0 15-6.709 15-15s-6.709-15-15-15h-241c-8.291 0-15 6.709-15 15s6.709 15 15 15h75v91h-15c-3.984 0-7.793 1.582-10.605 4.395l-60 60c-2.813 2.812-4.395 6.621-4.395 10.605v60c0 3.984 1.582 7.793 4.395 10.605l40.605 40.606v-42.422l-15-15v-47.578l51.211-51.211h108.578l51.211 51.211v47.578l-15 15v42.422l40.605-40.605c2.813-2.813 4.395-6.622 4.395-10.606v-60c0-3.984-1.582-7.793-4.395-10.605l-60-60c-2.812-2.813-6.621-4.395-10.605-4.395h-15v-91z"/><path d="m451 392h-390c-33.137 0-61 26.862-61 60 0 33.137 27.863 60 61 60h390c33.137 0 61-26.863 61-60 0-33.138-27.863-60-61-60zm-375 74.998c-8.286 0-15-6.716-15-15s6.714-15 15-15c8.284 0 15 6.716 15 15s-6.716 15-15 15zm60 0c-8.286 0-15-6.716-15-15s6.714-15 15-15c8.284 0 15 6.716 15 15s-6.716 15-15 15zm60 0c-8.286 0-15-6.716-15-15s6.714-15 15-15c8.284 0 15 6.716 15 15s-6.716 15-15 15zm60 0c-8.286 0-15-6.716-15-15s6.714-15 15-15c8.284 0 15 6.716 15 15s-6.716 15-15 15zm60 0c-8.286 0-15-6.716-15-15s6.714-15 15-15c8.284 0 15 6.716 15 15s-6.716 15-15 15zm60 0c-8.286 0-15-6.716-15-15s6.714-15 15-15c8.284 0 15 6.716 15 15s-6.716 15-15 15zm60 0c-8.286 0-15-6.716-15-15s6.714-15 15-15c8.284 0 15 6.716 15 15s-6.716 15-15 15z"/><path d="m181 241h-90c-8.291 0-15 6.709-15 15v106h120v-106c0-8.291-6.709-15-15-15z"/><path d="m422 241h-91c-8.291 0-15 6.709-15 15v106h121v-106c0-8.291-6.709-15-15-15z"/></g></svg>