<svg id="Layer_1" height="512" viewBox="0 0 512 512" width="512" xmlns="http://www.w3.org/2000/svg" data-name="Layer 1"><path d="m177.423 173.1h-91.9v-6.945a17.614 17.614 0 0 1 17.6-17.6h56.693a17.664 17.664 0 0 1 17.6 17.6zm81.723 17.773a12.773 12.773 0 0 0 -9.042-3.77h-237.263a12.872 12.872 0 0 0 -12.841 12.841v25.739a12.972 12.972 0 0 0 3.742 9.043l.056.028a12.773 12.773 0 0 0 9.043 3.77h237.259a12.963 12.963 0 0 0 9.042-3.742l.029-.056a12.778 12.778 0 0 0 3.77-9.043v-25.739a12.974 12.974 0 0 0 -3.741-9.044zm-231.933 61.655h208.519l-9.581 201.488a21.415 21.415 0 0 1 -21.374 20.41h-146.609a21.415 21.415 0 0 1 -21.374-20.41zm144.058 187.627a6.982 6.982 0 0 0 13.947.681l7.767-154.264a6.981 6.981 0 1 0 -13.947-.652zm-46.8.567a7 7 0 1 0 14 0v-154.49a7 7 0 1 0 -14 0zm-54.511-154.15 7.767 154.264a6.981 6.981 0 0 0 13.946-.681l-7.767-154.235a6.981 6.981 0 1 0 -13.946.652zm290.1 20.58a42.971 42.971 0 1 0 -30.416-12.586 42.9 42.9 0 0 0 30.417 12.586zm-94.11-25.739a96.3 96.3 0 0 1 0-34.527l19.644-5.442a78.5 78.5 0 0 1 5.754-13.862l-10.034-17.745a96.612 96.612 0 0 1 24.406-24.437l17.745 10.063a77.286 77.286 0 0 1 13.862-5.754l5.471-19.644a96.141 96.141 0 0 1 34.5 0l5.471 19.644a77.277 77.277 0 0 1 13.861 5.754l17.743-10.063a96.132 96.132 0 0 1 24.407 24.435l-10.035 17.745a76.379 76.379 0 0 1 5.755 13.862l19.644 5.442a96.363 96.363 0 0 1 0 34.527l-19.644 5.445a75.521 75.521 0 0 1 -5.755 13.861l10.035 17.745a96.132 96.132 0 0 1 -24.407 24.438l-17.745-10.034a79.191 79.191 0 0 1 -13.861 5.725l-5.467 19.67a96.2 96.2 0 0 1 -34.5 0l-5.471-19.673a79.2 79.2 0 0 1 -13.862-5.725l-17.747 10.037a96.144 96.144 0 0 1 -24.406-24.435l10.034-17.745a77.592 77.592 0 0 1 -5.754-13.861zm37.106-17.263a57.005 57.005 0 1 0 16.7-40.309 56.841 56.841 0 0 0 -16.7 40.309zm-28.687-135.328a24.437 24.437 0 1 0 -17.292-7.143 24.379 24.379 0 0 0 17.292 7.143zm-65.708-12.387a66.169 66.169 0 0 1 0-24.095l13.72-3.827a52.637 52.637 0 0 1 4.025-9.666l-7.03-12.388a67.815 67.815 0 0 1 17.064-17.065l12.388 7a54.663 54.663 0 0 1 9.666-4l3.827-13.72a66.228 66.228 0 0 1 24.095 0l3.827 13.72a54.632 54.632 0 0 1 9.666 4l12.388-7a67.835 67.835 0 0 1 17.065 17.065l-7.03 12.388a52.706 52.706 0 0 1 4.025 9.666l13.719 3.827a67.859 67.859 0 0 1 0 24.1l-13.719 3.8a52.167 52.167 0 0 1 -4.025 9.694l7.03 12.388a67.835 67.835 0 0 1 -17.062 17.058l-12.388-7.03a54.732 54.732 0 0 1 -9.666 4.025l-3.827 13.72a67.921 67.921 0 0 1 -24.095 0l-3.827-13.72a54.763 54.763 0 0 1 -9.666-4.025l-12.388 7.03a67.815 67.815 0 0 1 -17.064-17.065l7.03-12.388a52.1 52.1 0 0 1 -4.025-9.694zm27.239-12.048a38.521 38.521 0 1 0 11.284-27.187 38.278 38.278 0 0 0 -11.284 27.187zm238.85 60.152a151.925 151.925 0 0 0 -93.658-50.882 6.981 6.981 0 0 0 -1.9 13.833 138 138 0 1 1 -84.813 258.041l23.811-1.729a6.99 6.99 0 0 0 -.964-13.947l-45.695 3.317a6.814 6.814 0 0 0 -2.551.68 6.983 6.983 0 0 0 -3.26 9.326l19.984 41.245a6.973 6.973 0 0 0 12.558-6.067l-9.748-20.156a151.923 151.923 0 0 0 186.238-233.661z"/></svg>