<svg id="Capa_1" enable-background="new 0 0 548.505 548.505" height="512" viewBox="0 0 548.505 548.505" width="512" xmlns="http://www.w3.org/2000/svg"><g><g id="Icon_00000054255084409231286980000002660869984171940007_" clip-rule="evenodd" fill-rule="evenodd"><circle cx="140.327" cy="290.573" r="86.445"/><circle cx="408.179" cy="86.572" r="86.445"/><path d="m510.255 401.727c0-10.557 8.593-19.1 19.125-19.1 10.557 0 19.125 8.593 19.125 19.15l-.077 76.551c-.051 38.684-31.416 70.048-70.125 70.048h-140.301c-10.557 0-19.125-8.568-19.125-19.125s8.568-19.125 19.125-19.125h140.301c17.595 0 31.85-14.255 31.875-31.85z"/><path d="m38.378 146.778c0 10.557-8.593 19.1-19.15 19.1s-19.1-8.593-19.1-19.15l.077-76.551c.025-38.685 31.415-70.05 70.124-70.05h191.173c10.557 0 19.125 8.568 19.125 19.125s-8.568 19.125-19.125 19.125h-191.173c-17.595 0-31.849 14.254-31.875 31.85z"/><path d="m223.151 365.848c34.833 25.551 57.477 66.785 57.477 113.246 0 19.864-12.521 37.179-35.547 49.087-25.423 13.158-65.05 20.196-104.754 20.196-39.729 0-79.356-7.038-104.78-20.196-23.026-11.908-35.547-29.223-35.547-49.087 0-46.461 22.644-87.694 57.477-113.246 20.502 22.542 50.031 36.669 82.85 36.669 32.793.001 62.347-14.126 82.824-36.669z"/><path d="m491.028 161.848c34.833 25.551 57.477 66.785 57.477 113.245 0 19.865-12.521 37.179-35.547 49.087-25.423 13.158-65.051 20.196-104.78 20.196-39.703 0-79.331-7.038-104.754-20.196-23.026-11.908-35.547-29.223-35.547-49.087 0-46.461 22.644-87.695 57.477-113.245 20.477 22.542 50.031 36.669 82.824 36.669 32.819 0 62.348-14.127 82.85-36.669z"/></g></g></svg>