<svg clip-rule="evenodd" fill-rule="evenodd" height="512" image-rendering="optimizeQuality" shape-rendering="geometricPrecision" text-rendering="geometricPrecision" viewBox="0 0 1707 1707" width="512" xmlns="http://www.w3.org/2000/svg"><g id="Layer_x0020_1"><path d="m506 184c-19 11-24 36-13 55 12 18 36 24 55 13 55-34 115-61 178-79 62-17 126-27 194-27 195 0 372 80 500 207 128 128 207 305 207 500 0 196-79 372-207 500s-305 207-500 207c-196 0-372-79-500-207-119-119-196-280-206-460h8c68 0 124-55 124-123v-182c0-22-18-40-40-40h-12v-119c0-22-18-40-40-40s-40 18-40 40v119h-83v-119c0-22-18-40-40-40s-40 18-40 40v119h-11c-22 0-40 18-40 40v182c0 68 56 123 124 123h10c10 202 96 383 229 517 143 142 339 230 557 230 217 0 414-88 556-230 143-143 231-339 231-557 0-217-88-414-231-556-142-143-339-231-556-231-75 0-147 11-215 30-71 20-138 50-199 88zm348 312 409 236c1 0 2 1 4 2 20 12 36 29 47 49 12 21 19 45 19 70s-7 50-19 71c-11 20-33 42-54 53l-406 234c-18 11-37 17-57 18-50 5-97-16-127-58-16-23-27-53-27-81v-473c0-1 0-3 0-4 1-25 8-47 19-66 13-22 31-40 52-52s46-19 71-18c23 0 47 6 69 19z" fill-rule="nonzero"/></g></svg>