<svg id="Layer_1" enable-background="new 0 0 91 91" height="512" viewBox="0 0 91 91" width="512" xmlns="http://www.w3.org/2000/svg"><g><path d="m46 80.2c7 0 12.7-2.2 16.8-6.5 7.3-7.7 6.9-19.2 6.9-19.7-.1-1.2-.9-2.2-2.1-2.4-1.1-.2-2.3.4-2.8 1.5-.8 1.9-2.7 3.1-4.8 3.1s-3.9-1.2-4.7-3c-.2-.6-.7-1.2-1.4-1.4-1.3-.5-2.8.1-3.3 1.3-.8 1.9-2.7 3.1-4.8 3.1s-3.9-1.2-4.7-3c-.2-.7-.7-1.2-1.4-1.5-1.3-.5-2.8.1-3.3 1.3-.8 1.9-2.7 3.1-4.8 3.1s-4-1.2-4.8-3.1c-.5-1.1-1.6-1.7-2.8-1.5s-2 1.2-2.1 2.4c0 .5-.3 12.2 7.2 19.8 4.4 4.3 10 6.5 16.9 6.5z"/><path d="m46 89.9c18 0 32.7-15.2 32.7-33.9 0-18.1-29.5-52.8-30.7-54.3-.5-.6-1.2-.9-2-.9s-1.5.3-2 .9c-1.2 1.5-30.7 36.2-30.8 54.3 0 18.7 14.7 33.9 32.8 33.9zm0-82.5c9.2 11.2 27.5 36.1 27.5 48.6 0 15.9-12.4 28.8-27.6 28.8s-27.6-12.9-27.6-28.8c.1-12.5 18.5-37.4 27.7-48.6z"/></g></svg>