<svg id="Layer_1" enable-background="new 0 0 512 512" viewBox="0 0 512 512" xmlns="http://www.w3.org/2000/svg"><path d="m187.764 246.593c0-11.63 9.461-21.091 21.091-21.091 11.645 0 21.119 9.461 21.119 21.091 0 4.414-3.578 7.992-7.992 7.992s-7.992-3.578-7.992-7.992c0-2.816-2.304-5.106-5.135-5.106-2.815 0-5.106 2.29-5.106 5.106 0 4.414-3.578 7.992-7.992 7.992s-7.993-3.577-7.993-7.992zm154.638 149.176v90.224c0 4.411-3.573 7.995-7.994 7.995h-325.914c-4.411 0-7.994-3.583-7.994-7.995v-90.224c0-20.55 13.354-37.906 33.225-43.166l82.519-21.937v-12.226c-22.356-16.418-37.167-42.547-38.166-72.119-.03-.898-.05-1.796-.06-2.705-14.442-1.217-25.82-13.364-25.82-28.115 0-14.5 10.987-26.477 25.079-28.045-1.094-.907-2.168-1.831-3.202-2.775-3.144-2.875-6.008-5.919-8.563-9.112-1.128-1.417-1.747-3.184-1.747-4.99v-17.965h15.979v-.27h183.412v.27h15.989v17.965c0 1.807-.619 3.573-1.747 4.99-2.555 3.194-5.419 6.238-8.573 9.112-1.034.945-2.109 1.871-3.205 2.784h.001c14.083 1.567 25.051 13.543 25.051 28.035 0 14.751-11.358 26.887-25.8 28.105 0 .918-.02 1.816-.05 2.714-.998 29.583-15.809 55.711-38.185 72.139v12.206l82.549 21.937c19.872 5.272 33.216 22.628 33.216 43.168zm-170.946-75.203c42.707 0 77.449-34.752 77.449-77.449v-44.343c-21.159 11.637-48.406 18.294-77.449 18.294s-56.29-6.657-77.449-18.294v44.343c0 42.697 34.743 77.449 77.449 77.449zm-10.16 76.451-40.092-51.13-25.809 6.866 46.15 69.445zm10.16-12.955 39.193-50.002v-6.148c-11.927 5.54-25.201 8.634-39.193 8.634-14.003 0-27.287-3.094-39.223-8.643v6.158zm76.041-31.309-25.819-6.856-40.072 51.12 19.731 25.181zm-214.111-261.978c-.399-8.024 5.589-15.16 13.643-16.198 38.964-4.731 63.845-22.426 83.836-36.648 6.068-4.322 11.807-8.394 17.386-11.737 17.875-10.649 27.496-10.839 44.802-.918 6.108 3.503 12.366 7.955 18.993 12.666 19.991 14.212 44.872 31.907 83.746 36.628 8.044.978 14.073 8.094 13.733 16.198-.838 18.664-6.388 34.014-16.578 45.87h-19.702-4.771-194.048-4.771-19.712c-10.19-11.857-15.739-27.207-16.557-45.861zm134.776 33.444c1.048.469 2.166.709 3.294.709 1.118 0 2.246-.239 3.293-.709 14.921-6.747 32.107-22.196 29.283-57.488-.229-2.854-1.966-5.369-4.561-6.597l-24.612-11.597c-2.156-1.018-4.651-1.018-6.807 0l-24.642 11.597c-2.595 1.228-4.341 3.743-4.561 6.597-2.834 35.302 14.383 50.742 29.313 57.488zm-21.912 157.8c-3.404 2.811-3.884 7.848-1.074 11.251 7.316 8.86 16.649 13.739 26.278 13.739 9.731 0 18.814-4.746 26.265-13.723 2.819-3.396 2.351-8.436-1.046-11.254-3.396-2.82-8.436-2.352-11.254 1.046-3.009 3.626-7.874 7.947-13.965 7.947-6.118 0-10.965-4.314-13.953-7.932-2.81-3.405-7.848-3.886-11.251-1.074zm-17.36-35.426c0-2.816 2.303-5.106 5.135-5.106 2.816 0 5.107 2.29 5.107 5.106 0 4.414 3.578 7.992 7.992 7.992s7.992-3.578 7.992-7.992c0-11.63-9.462-21.091-21.091-21.091-11.645 0-21.119 9.461-21.119 21.091 0 4.414 3.578 7.992 7.992 7.992s7.992-3.577 7.992-7.992zm382.61 56.244v25.575c0 14.921-12.139 27.061-27.06 27.061h-64.9-76.5c-14.921 0-27.06-12.139-27.06-27.061v-209.581c0-4.414 3.578-7.992 7.992-7.992h159.421c4.414 0 7.992 3.578 7.992 7.992v176.014h12.123c4.414 0 7.992 3.578 7.992 7.992zm-36.099-176.014h-143.437v201.589c0 6.107 4.969 11.076 11.076 11.076 6.123 0 11.104-4.969 11.104-11.076v-25.575c0-4.414 3.578-7.992 7.992-7.992h113.264v-168.022zm-75.552 43.738h58.195c4.414 0 7.992-3.578 7.992-7.992s-3.578-7.992-7.992-7.992h-58.195c-4.414 0-7.992 3.578-7.992 7.992s3.578 7.992 7.992 7.992zm-46.172 10.337c1.52 1.69 3.682 2.648 5.942 2.648.131 0 .263-.003.394-.01 2.402-.118 4.622-1.312 6.046-3.25l19.069-25.943c2.614-3.556 1.85-8.558-1.707-11.172-3.557-2.613-8.559-1.852-11.173 1.707l-13.252 18.029-4.298-4.778c-2.952-3.283-8.004-3.55-11.287-.598-3.282 2.951-3.55 8.005-.598 11.286zm46.172 33.344h58.195c4.414 0 7.992-3.578 7.992-7.992s-3.578-7.992-7.992-7.992h-58.195c-4.414 0-7.992 3.578-7.992 7.992s3.578 7.992 7.992 7.992zm-46.173 10.339c1.52 1.69 3.682 2.648 5.942 2.648.131 0 .263-.003.394-.01 2.402-.118 4.622-1.312 6.046-3.25l19.068-25.943c2.614-3.557 1.85-8.559-1.707-11.173-3.557-2.615-8.559-1.852-11.174 1.707l-13.252 18.03-4.297-4.779c-2.952-3.283-8.005-3.55-11.287-.598-3.282 2.951-3.55 8.005-.599 11.287zm46.173 33.344h58.195c4.414 0 7.992-3.578 7.992-7.992s-3.578-7.992-7.992-7.992h-58.195c-4.414 0-7.992 3.578-7.992 7.992s3.578 7.992 7.992 7.992zm-46.173 10.337c1.52 1.69 3.682 2.648 5.942 2.648.131 0 .263-.003.394-.01 2.402-.118 4.622-1.312 6.046-3.25l19.068-25.944c2.614-3.556 1.85-8.558-1.707-11.173-3.557-2.616-8.559-1.851-11.174 1.707l-13.252 18.03-4.297-4.779c-2.952-3.283-8.005-3.55-11.287-.598-3.282 2.951-3.55 8.005-.599 11.286z"/></svg>