<svg id="Layer_1" enable-background="new 0 0 100 100" height="512" viewBox="0 0 100 100" width="512" xmlns="http://www.w3.org/2000/svg"><path d="m67.6 16.5c-2.1-2.6-4.9-4.2-8.1-4.4-22.2-1.7-31.7 13.6-32.1 14.3-.2.4-.2.9 0 1.3s.7.6 1.2.6c10.9-.7 16.5 3 21 6 2 1.3 3.8 2.5 5.8 3.1 1 .3 2 .5 3 .5 1.9 0 3.8-.6 5.6-1.7.5-.3.9-.6 1.4-1l-2.4-1.3-17.3-10.1c8.5.3 15.2 2.8 20.1 7.4.6.6 1.2 1.2 1.8 1.9 1.5 1.7 2.7 3.6 3.8 5.7.5 1 1 2.1 1.4 3.2.2.5.7.8 1.2.8.2 0 .3 0 .5-.1.7-.3 1-1 .7-1.7-1.5-4-3.6-7.4-6.2-10.2.6-1.3 1.1-2.6 1.3-4 .6-3.6-.4-7.4-2.7-10.3z"/><path d="m86.8 46.8c-.2-.4-.6-.7-1.2-.7-.5 0-.9.3-1.1.7-4.8 9.8-10.8 12.8-15.6 15.2-2.1 1.1-4.1 2.1-5.6 3.5-2.2 2-3.4 4.9-3.3 8.1 0 .6.1 1.1.2 1.7l2.4-1.4 17.4-9.9c-4.6 7.2-10 11.7-16.4 13.7-.8.2-1.7.5-2.5.6-2.2.4-4.5.6-6.9.4-1.1-.1-2.3-.2-3.4-.4-.7-.1-1.4.4-1.5 1.1s.4 1.4 1.1 1.5c1.9.3 3.7.4 5.5.4 2.2 0 4.4-.2 6.4-.7.8 1.2 1.7 2.3 2.8 3.1 2.4 1.9 5.3 3 8.4 3 .6 0 1.3-.1 1.9-.1 1.7-.2 3.2-.8 4.5-1.6s2.5-1.9 3.4-3.2c12.4-18.5 3.9-34.4 3.5-35z"/><path d="m18.4 50.7c-3.4 1.3-6.2 4-7.6 7.5-1.2 3.1-1.1 6.4.2 9.2 9.7 20 27.7 20.6 28.5 20.6.5 0 .9-.2 1.1-.7.2-.4.2-.9-.1-1.3-6.1-9.1-5.7-15.8-5.3-21.2.1-2.3.3-4.6-.2-6.6-.6-2.9-2.5-5.4-5.3-6.9-.5-.3-1-.5-1.5-.7v2.8l-.1 20c-4-7.5-5.2-14.5-3.6-21 .2-.8.4-1.7.7-2.5.7-2.1 1.7-4.1 3.1-6.2.6-.9 1.3-1.9 2-2.8.4-.6.4-1.4-.2-1.8s-1.4-.3-1.8.2c-2.7 3.3-4.6 6.8-5.7 10.4-1.5.2-2.9.5-4.2 1z"/></svg>