<svg height="512" viewBox="0 0 42 56" width="512" xmlns="http://www.w3.org/2000/svg"><g id="Page-1" fill="none" fill-rule="evenodd"><g id="015---Tax-Money-Bag" fill="rgb(0,0,0)" fill-rule="nonzero"><path id="Shape" d="m21 40.462-1.128 2.538h2.256z"/><path id="Shape" d="m14 21h-3.288c-6.431 7.938-12.422 19.413-10.26 28.273 1.00708804 3.9843978 4.60845805 6.7632939 8.718 6.727h23.66c4.1101292.0354395 7.7116403-2.7440729 8.719-6.729 2.162-8.858-3.83-20.333-10.261-28.271h-11.288c-.5522847 0-1-.4477153-1-1s.4477153-1 1-1c0 0 9.153-.006 12.558-.006 2.1362115.0258971 4.033316 1.3714714 4.764 3.379.2060022.5125202.7884798.7610021 1.301.5549999s.7610022-.7884797.555-1.3009999c-.889805-2.2473148-2.8463563-3.8993635-5.211-4.4l-.029-.139c2.0128993-1.3839572 3.243603-3.6461927 3.312-6.088 0-.5522847-.4477153-1-1-1s-1 .4477153-1 1c-.1022237 2.0087686-1.216388 3.8285577-2.959 4.833-.1661582.1103739-.3615292.1685325-.561.167h-22.23c-.43112903-.000311-.84154755.1848988-1.12655761.5083824-.28501006.3234835-.41705219.7539611-.36244239 1.1816176.12325531.7684214.79496031 1.3278197 1.573 1.31h4.416c.5522847 0 1 .4477153 1 1s-.4477153 1-1 1zm14.168 17.555c-.306518-.4595009-.1825009-1.0804819.277-1.387.4595009-.306518 1.080482-.1825009 1.387.277l2.168 3.255 2.168-3.252c.306518-.4595009.9274991-.583518 1.387-.277s.583518.9274991.277 1.387l-2.632 3.942 2.63 3.945c.306518.4595009.1825009 1.0804819-.277 1.387-.4595009.306518-1.080482.1825009-1.387-.277l-2.166-3.255-2.168 3.252c-.3065181.4595009-.9274991.583518-1.387.2769999-.4595009-.306518-.583518-.927499-.277-1.3869999l2.632-3.942zm-12.082 8.039 1.32-2.969.013-.029 2.667-6c.1653475-.3555521.5218812-.5829494.914-.5829494s.7486525.2273973.914.5829494l2.667 6 .013.029 1.32 2.969c.2242276.5047883-.0032118 1.0957724-.508 1.32-.5047883.2242276-1.0957724-.0032118-1.32-.508l-1.069-2.406h-4.034l-1.069 2.406c-.2242276.5047883-.8152117.7322276-1.32.508s-.7322276-.8152117-.508-1.32zm-2.086-7.594h-3v8c0 .5522847-.4477153 1-1 1-.55228475 0-1-.4477153-1-1v-8h-3c-.55228475 0-1-.4477153-1-1s.44771525-1 1-1h8c.5522847 0 1 .4477153 1 1s-.4477153 1-1 1z"/><path id="Shape" d="m16.385 11.923c-.2447927.1021296-.5201322.1028221-.7654356.0019252-.2453034-.100897-.4404725-.2951167-.5425644-.5399252l-2.66-6.385h-1.947c-.73231398-.00470955-1.40864232.39120049-1.76305306 1.03205849s-.33022282 1.4241713.06305306 2.04194151l3.779 5.926h16.9l3.776-5.927c.3922385-.61697028.416576-1.39879979.063471-2.03897182-.3531049-.64017202-1.0273784-1.03666291-1.758471-1.03402818h-1.947l-2.66 6.385c-.2126296.5097588-.7982412.7506296-1.308.538s-.7506296-.7982412-.538-1.308l3.269-7.846c.2570836-.61721781.188733-1.32207676-.1821494-1.87840041-.3708824-.55632364-.9952328-.89051602-1.6638506-.89059959h-11c-.6686178.00008357-1.2929682.33427595-1.6638506.89059959-.3708824.55632365-.439233 1.2611826-.1821494 1.87840041l3.269 7.846c.1021296.2447927.1028221.5201322.0019252.7654356-.100897.2453034-.2951167.4404725-.5399252.5425644z"/></g></g></svg>