<svg id="Layer_1" enable-background="new 0 0 124 124" height="512" viewBox="0 0 124 124" width="512" xmlns="http://www.w3.org/2000/svg"><g id="XMLID_463_"><path d="m105.663 39.309c-4.253 0-7.844 2.879-8.967 6.801l-24.081-4.957c.329-3.048-.355-6.143-1.936-8.77l16.814-13.642c1.804 1.475 4.101 2.363 6.601 2.363 5.783 0 10.487-4.733 10.487-10.551 0-5.819-4.704-10.553-10.486-10.553s-10.487 4.734-10.487 10.552c0 1.73.424 3.36 1.161 4.803l-16.876 13.691c-5.424-4.751-13.771-4.491-18.894.577l-12.038-12.344c1.388-1.64 2.23-3.76 2.23-6.078 0-5.18-4.188-9.395-9.336-9.395s-9.337 4.214-9.337 9.395c0 5.18 4.189 9.394 9.337 9.394 1.266 0 2.472-.257 3.574-.718l12.967 13.297c-1.481 2.867-1.921 6.17-1.258 9.327l-17.483 9.324c-1.924-2.404-4.868-3.949-8.168-3.949-5.783-.001-10.487 4.733-10.487 10.551s4.704 10.551 10.487 10.551 10.487-4.733 10.487-10.551c0-.939-.134-1.846-.364-2.713l17.095-9.117c.869 1.515 1.999 2.875 3.375 3.978v-9.266c0-5.158 4.159-9.355 9.27-9.355 4.544 0 8.683 3.737 8.683 7.84v10.284c1.478-1.315 2.647-2.921 3.446-4.71l25.026 5.151c.844 4.313 4.628 7.578 9.158 7.578 5.148 0 9.337-4.214 9.337-9.394s-4.189-9.394-9.337-9.394z"/><path d="m99.448 73.315c-2.471 0-4.48 2.031-4.48 4.527v7.416c0 1.133-.914 2.055-2.038 2.055s-2.039-.922-2.039-2.055v-12.787c0-3.044-2.451-5.52-5.464-5.52-2.471 0-4.481 2.031-4.481 4.527v7.466c0 1.133-.915 2.055-2.039 2.055s-2.038-.922-2.038-2.055v-12.202c0-2.496-2.01-4.526-4.481-4.526s-4.481 2.031-4.481 4.526v5.186c0 1.133-.914 2.055-2.038 2.055s-2.038-.921-2.038-2.055v-32.134c0-1.452-1.882-3.605-4.481-3.605-2.795 0-5.069 2.297-5.069 5.12v44.94c0 .938-.629 1.756-1.529 1.99-.903.235-1.843-.175-2.293-.994l-4.08-7.428c-.851-1.549-2.469-2.511-4.225-2.511-.795 0-1.583.203-2.279.588-2.25 1.244-3.158 4.069-2.064 6.434l17.186 34.062c1.746 3.46 5.219 5.609 9.064 5.609h20.219c11.166 0 20.25-9.171 20.25-20.445v-25.107c-.001-2.83-2.28-5.132-5.082-5.132z"/></g></svg>