<svg id="glipy" height="512" viewBox="0 0 64 64" width="512" xmlns="http://www.w3.org/2000/svg"><path d="m23.48214 48.85751a8.86806 8.86806 0 0 1 -11.95755.00006c-2.7439 1.586-6.95569 6.22763-4.70131 9.5819a3.73587 3.73587 0 0 0 3.03158 1.56053h15.28714a3.73589 3.73589 0 0 0 3.03164-1.56053c2.25181-3.34929-1.96186-7.99547-4.6915-9.58196z"/><path d="m24.33693 42.36708c-.31091-9.0726-13.38746-9.05161-13.68685-.00013.30097 9.01205 13.35665 9.09195 13.68685.00013z"/><path d="m39.66391 42.367c.32748 9.08655 13.38322 9.01782 13.68686.00013-.29666-9.04766-13.37412-9.07629-13.68686-.00013z"/><path d="m52.486 48.85751a8.85213 8.85213 0 0 1 -11.95754.00006c-2.72722 1.58608-6.95945 6.22921-4.70132 9.5819a3.73592 3.73592 0 0 0 3.03167 1.56053h15.28719a3.73587 3.73587 0 0 0 3.03158-1.56053c2.25115-3.35318-1.95421-7.99322-4.69158-9.58196z"/><path d="m28.70045 22.10012h7.26588l6.44088 5.15862a.99794.99794 0 0 0 1.61027-.7752v-4.38342h2.59424a2.7913 2.7913 0 0 0 2.78309-2.78312v-12.53385a2.7849 2.7849 0 0 0 -2.78309-2.78315h-17.91127a2.78489 2.78489 0 0 0 -2.78308 2.78315v12.53385a2.79129 2.79129 0 0 0 2.78308 2.78312z"/><path d="m23.92944 19.317v-6.27188h-6.81859a2.507 2.507 0 0 0 -2.50485 2.50481v10.546a2.507 2.507 0 0 0 2.50481 2.50475h2.01772v3.53851a1.00588 1.00588 0 0 0 1.62017.77532l5.37738-4.31383h6.06316a2.507 2.507 0 0 0 2.50481-2.50475v-2.00788h-5.9936a4.77224 4.77224 0 0 1 -4.77101-4.77105z"/></svg>