<svg id="Layer_1" enable-background="new 0 0 512 512" height="512" viewBox="0 0 512 512" width="512" xmlns="http://www.w3.org/2000/svg"><path clip-rule="evenodd" d="m200.077 8.999h76.546v38.407c25.343 5.052 48.91 15.024 69.668 28.876l27.171-27.171 54.125 54.127-27.17 27.171c13.854 20.756 23.821 44.326 28.875 69.667h38.408v76.546h-38.408c-4.461 22.38-12.759 43.375-24.177 62.273l-13.613-13.613-9.474 9.474-7.972-7.972c16.607-25.426 26.266-55.802 26.266-88.435 0-89.449-72.523-161.973-161.973-161.973-89.449 0-161.973 72.524-161.973 161.973s72.523 161.973 161.973 161.973c32.632 0 63.005-9.66 88.432-26.264l7.973 7.972-9.473 9.473 13.614 13.614c-18.898 11.419-39.894 19.714-62.273 24.177v38.405h-76.546v-38.405c-25.344-5.052-48.911-15.023-69.671-28.875l-27.169 27.169-54.126-54.127 27.168-27.168c-13.855-20.757-23.822-44.328-28.876-69.671h-38.402v-76.546h38.405c5.052-25.344 15.024-48.911 28.876-69.669l-27.17-27.17 54.127-54.126 27.17 27.17c20.757-13.854 44.327-23.82 69.67-28.875v-38.407zm79.563 182.421-63.427 63.427-22.348-28.123c-5.408-6.803-15.307-7.933-22.11-2.525-6.802 5.408-7.933 15.307-2.525 22.109l32.715 41.17c5.596 8.014 17.114 9.111 24.086 2.138l75.901-75.901c6.156-6.156 6.156-16.138 0-22.294-6.154-6.157-16.136-6.157-22.292-.001zm-41.29-99.044c-80.618 0-145.973 65.355-145.973 145.973 0 80.619 65.354 145.973 145.973 145.973s145.973-65.354 145.973-145.973c0-80.618-65.354-145.973-145.973-145.973zm-.002 254.554c-59.967 0-108.58-48.612-108.58-108.58.001-59.968 48.613-108.58 108.58-108.58 59.968 0 108.581 48.613 108.581 108.58-.001 59.968-48.613 108.58-108.581 108.58zm143.68 10.453-17.495-17.495c-7.309 9.071-15.576 17.336-24.647 24.646l17.495 17.495-9.473 9.473 22.418 22.418 43.593-43.593-22.418-22.418zm-.39 67.85 68.778 68.777c11.987 11.988 31.605 11.987 43.593 0 11.987-11.987 11.988-31.605 0-43.593l-68.777-68.778z" fill-rule="evenodd"/></svg>