<svg height="512" viewBox="0 0 24 24" width="512" xmlns="http://www.w3.org/2000/svg"><path d="m22 20a2 2 0 1 1 -2-2 2 2 0 0 1 2 2zm-18-1a2 2 0 1 0 -2-2 2 2 0 0 0 2 2zm16-17a2 2 0 1 0 2 2 2 2 0 0 0 -2-2zm-14.4855.0428a3 3 0 0 0 -1.1951 5.8772 2.93 2.93 0 0 0 2.1957-.3441l1.189 1.189a1.9812 1.9812 0 0 1 .4878 2.01 3.9866 3.9866 0 0 0 -.1919 1.2251q0 .1812.0172.3579a1.9519 1.9519 0 0 1 -.9288 1.8278l-.591.3694a3.4977 3.4977 0 0 1 .787 1.2764l.604-.3775a1.9962 1.9962 0 0 1 2.0854-.0134 3.9344 3.9344 0 0 0 2.0262.5594 3.9848 3.9848 0 0 0 1.2253-.1919 1.9814 1.9814 0 0 1 2.01.4877l1.823 1.823a3.5125 3.5125 0 0 1 1.0605-1.0605l-1.8229-1.823a1.9812 1.9812 0 0 1 -.4878-2.01 4.0091 4.0091 0 0 0 0-2.451 1.9812 1.9812 0 0 1 .4878-2.01l1.8229-1.823a3.5125 3.5125 0 0 1 -1.0605-1.0605l-1.823 1.8229a1.9812 1.9812 0 0 1 -2.01.4878 4.0091 4.0091 0 0 0 -2.451 0 1.9812 1.9812 0 0 1 -2.01-.4878l-1.189-1.189a2.93 2.93 0 0 0 .3447-2.1953 3.0288 3.0288 0 0 0 -2.4055-2.2766z"/></svg>