<svg id="Layer_1" enable-background="new 0 0 66 66" height="512" viewBox="0 0 66 66" width="512" xmlns="http://www.w3.org/2000/svg"><g><path d="m61.2 31.8c-.5.6-1.2.9-1.9.9v14.5c0 .6-.5 1-1 1-.6 0-1-.4-1-1v-14.4h-6.1c-.6 0-1.2-.2-1.6-.5l-2.5-1.8v10.9c0 .7.2 1.4.6 2l5.3 7.6c.2.2.3.4.4.7l4.3 8.9c.4.9.4 1.7 0 2.5-.3.8-1 1.4-1.8 1.7-.4.2-.8.2-1.2.2-1.3 0-2.5-.8-3-2l-4.1-8.6-6.3-9.2-2 7.7c-.1.3-.2.6-.3.9 0 .1-.1.1-.1.1l-7.4 9.5c-.6 1-1.6 1.6-2.8 1.6-.5 0-1.1-.1-1.5-.4-1.6-.8-2.2-2.8-1.3-4.4 0-.1.1-.1.1-.2l6.7-8.6c.2-.3.4-.7.5-1l1-5.3c.3-1.6.4-3.3.4-4.9v-10.2l-2 1 1.2 5.6c.2.6.1 1.3-.2 2-.3.6-.9 1.1-1.6 1.3-.4.1-.6.1-.9.1-1.2 0-2.2-.8-2.6-1.9l-.2-.7c-.1 0-.3-.1-.4-.2l-7.1-6v11.1.2 19.5c0 1.7-1.4 3-3 3-1.7 0-3-1.4-3-3 0 0 0-14 0-18.4 0-.1 0-.2-.1-.2-.1-.1-.5-.1-.6.2-.8 4.1-4 19-4 19.2v.1c-.6 1.5-2.3 2.4-3.9 1.8-.8-.3-1.4-.8-1.7-1.5s-.4-1.5-.1-2.2l2.9-14.4c.3-1.7.6-2.9.7-4.2-.3.1-.6.1-.9.1-.2 0-.3 0-.5 0-1.4-.2-2.5-1.6-2.5-3.1v-12.7c0-2.8 2.3-5 5-5h6.5c2.1 0 4.2.8 5.8 2.2l5 4.3c.2-.4.5-.7.9-.9l6.7-4.1c.8-.5 1.8-.8 2.9-.8h7.7c1.2 0 2.4.4 3.3 1.1l5.2 3.9h4.1v-16.7c-.3.1-.7.2-1 .2-1.2 0-2.3-.5-3.2-.9-1.7-.8-2.6-1.1-3.6-.2-.3.3-.7.3-1.1.2-.4-.2-.6-.5-.6-.9v-6.2c0-.3.1-.5.3-.7 2.1-1.9 4.3-.9 5.9-.2 1.7.8 2.6 1.2 3.6.2.2-.2.3-.2.4-.3h.1.3.1c.1 0 .2 0 .3.1.1 0 .2 0 .3.1 0 0 0 0 .1.1 0 .1.1.1.1.2v.1c0 .1.1.2.1.3v24.6c1.2.1 2.3 1 2.5 2.2.2.8-.1 1.6-.6 2.2z"/><path d="m35.1 14.7c0-3.2 2.6-5.8 5.8-5.8s5.8 2.6 5.8 5.8-2.6 5.8-5.8 5.8c-3.2-.1-5.8-2.7-5.8-5.8z"/><path d="m8.7 14.1c0-2.9 2.3-5.2 5.2-5.2s5.2 2.3 5.2 5.2-2.3 5.2-5.2 5.2c-2.8 0-5.2-2.3-5.2-5.2z"/></g></svg>