<svg id="Layer_1" enable-background="new 0 0 512 512" viewBox="0 0 512 512" xmlns="http://www.w3.org/2000/svg"><path clip-rule="evenodd" d="m284.102 142.185-142.853 142.854c-6.161 6.161-16.213 6.162-22.374 0l-98.254-98.254c-6.161-6.161-6.161-16.212 0-22.374l142.853-142.853c3.288-3.288 7.379-4.858 12.022-4.612l75.024 3.968c9.629.509 18.19 2.399 25.008 9.217s8.707 15.379 9.217 25.007l1.196 22.614c20.733.763 47.048-3.118 65.002-12.317 18.217-9.334 17.492-16.187-2.237-21.583-15.174-4.151-33.34-4.056-49.541-1.869-1.2-5.472-3.133-10.571-6.026-15.24 19.414-3.059 41.555-3.245 59.755 1.734 33.993 9.298 36.663 35.075 5.299 51.146-26.626 13.643-70.547 18.196-99.406 10.301-15.733-4.303-26.02-12.326-27.131-23.047-.672-6.486 2.156-12.696 7.717-18.237-9.523.118-17.207 7.874-17.207 17.425 0 4.629 1.805 8.835 4.749 11.956 5.837 10.481 18.262 16.508 29.744 19.649 9.633 2.635 20.113 3.874 30.553 4.117l1.501 28.376c.246 4.642-1.324 8.735-4.611 12.022zm-130.675 248.057h33.66c5.508 0 10 4.492 10 10v84.836c0 5.508-4.492 10-10 10h-33.66c-5.508 0-10-4.492-10-10v-84.836c.001-5.508 4.493-10 10-10zm283.996-209.041 10.343-.907-80.723 81.413-94.683-30.706c-2.434-.789-5.203-.394-7.371 1.299l-99.638 77.584c-3.469 2.709-4.085 7.718-1.375 11.188 2.709 3.469 7.719 4.085 11.188 1.375l96.279-74.969 95.333 30.932c3.095 1.006 6.36.02 8.406-2.252l83.547-84.261-1.115 9.974c-.483 4.384 2.679 8.33 7.062 8.813 4.384.483 8.33-2.679 8.813-7.062l3.564-31.871c.878-5.099-3.351-9.78-8.571-9.33l-32.435 2.844c-4.401.38-7.661 4.255-7.281 8.656s4.256 7.659 8.657 7.28zm14.917 72.216h33.66c5.508 0 10 4.492 10 10v221.662c0 5.508-4.492 10-10 10h-33.66c-5.508 0-10-4.492-10-10v-221.663c0-5.507 4.492-9.999 10-9.999zm-99.637 92.753h33.661c5.508 0 10.001 4.493 10 10.001v128.907c0 5.508-4.492 10-10 10-11.22 0-22.44 0-33.661 0-5.508 0-10-4.492-10-10 0-51.789 0-77.118 0-128.907-.001-5.508 4.492-10.001 10-10.001zm-99.638-22.365h33.66c5.508 0 10 4.492 10 10v151.273c0 5.508-4.492 10-10 10h-33.66c-5.508 0-10-4.492-10-10v-151.273c.001-5.508 4.493-10 10-10zm-66.436-167.929c3.552-8.695 2.292-17.123-1.617-23.916l1.454-1.454c3.124-3.124 3.124-8.189 0-11.312-3.124-3.124-8.189-3.124-11.312 0l-1.497 1.497c-9.796-5.522-21.666-4.953-29.549 3.736-9.527 10.5-5.352 23.182 1.989 33.407 2.795 3.893 7.437 10.788 3.804 15.425-.105.134-.258.307-.457.514-3.061 3.21-8.792-.078-11.516-2.212-.499-.391-1.026-.852-1.567-1.368-4-3.813-6.788-9.939-3.669-15.13 2.261-3.779 1.029-8.677-2.75-10.938s-8.677-1.03-10.938 2.75c-5.34 8.887-4.576 19.144.661 27.807l-1.407 1.407c-3.124 3.124-3.124 8.189 0 11.312 3.124 3.124 8.189 3.124 11.312 0l1.31-1.31c9.573 6.174 21.61 7.612 30.126-1.319.456-.479.941-1.045 1.457-1.702 8.957-11.433 4.11-24.049-3.429-34.55-2.333-3.25-6.527-9.582-3.114-13.344 2.989-3.294 7.495-2.219 10.78-.035 4.919 3.27 7.52 9.005 5.179 14.735-1.657 4.073.302 8.718 4.375 10.375s8.718-.302 10.375-4.375zm69.282-83.678c.717-1.908 1.11-3.974 1.11-6.132 0-3.439-.997-6.645-2.716-9.346-4.53 3.075-7.032 6.044-6.774 8.534.257 2.478 3.314 4.865 8.38 6.944zm-103.55 17.524c-35.112 0-63.576 28.464-63.576 63.577 0 35.112 28.464 63.576 63.576 63.576 35.113 0 63.577-28.464 63.577-63.576 0-35.113-28.464-63.577-63.577-63.577z" fill-rule="evenodd"/></svg>