<svg id="Layer_1" viewBox="0 0 512 512" xmlns="http://www.w3.org/2000/svg" data-name="Layer 1"><path d="m334.152 401.333h134.193a9.7 9.7 0 0 0 9.655-9.654v-41.358a9.7 9.7 0 0 0 -9.655-9.654h-119.872a168.483 168.483 0 0 1 -14.321 60.666zm29.021-160v83.334h-14.7q-.342-7.342-1.3-14.514v-68.82l-14.92-25.706a7.965 7.965 0 1 1 13.812-7.937l9.108 15.637 9.107-15.637a7.965 7.965 0 0 1 13.813 7.937zm-131.124-215.333c-13.2 28.5-9.624 70.042 12.211 107.861 19.5 33.768 48.84 56.414 77.17 62.883l-46.53-80.591a7.965 7.965 0 1 1 13.812-7.938l46.513 80.563c8.563-27.769 3.624-64.5-15.872-98.273-21.833-37.818-56.023-61.689-87.304-64.505zm246.251 0c13.2 28.5 9.625 70.042-12.21 107.861-19.5 33.768-48.84 56.414-77.171 62.883l46.53-80.591a7.966 7.966 0 0 0 -13.813-7.938l-46.513 80.564c-8.563-27.77-3.624-64.506 15.872-98.274 21.831-37.818 56.02-61.689 87.305-64.505zm-298.967 153.334a153.333 153.333 0 1 0 153.333 153.333 153.332 153.332 0 0 0 -153.333-153.333zm38.731 127.1a8 8 0 0 1 -16 0c0-16.31-25.1-24.58-39.272-12.486-13.648 11.649-3.254 30.716 16.542 30.716 20.132 0 38.73 14.247 38.73 34.23 0 17.278-14.054 30.387-30.73 33.5v14.024a8 8 0 0 1 -16 0v-14.026c-16.675-3.108-30.731-16.217-30.731-33.5a8 8 0 0 1 16 0c0 16.309 25.1 24.579 39.273 12.485 13.648-11.649 3.254-30.715-16.542-30.715-20.133 0-38.731-14.248-38.731-34.23 0-17.278 14.055-30.388 30.731-33.5v-14.015a8 8 0 0 1 16 0v14.025c16.676 3.107 30.73 16.217 30.73 33.5zm-38.73-93.746a119.976 119.976 0 1 1 -119.976 119.979 119.978 119.978 0 0 1 119.976-119.976zm73.522 46.453a103.977 103.977 0 1 1 -147.045 0 103.979 103.979 0 0 1 147.045 0zm215.489 158.192a9.7 9.7 0 0 1 9.655 9.655v41.357a9.7 9.7 0 0 1 -9.655 9.655h-202.082a170.183 170.183 0 0 0 59.737-60.667z" fill-rule="evenodd"/></svg>