<svg id="Capa_1" enable-background="new 0 0 512 512" height="512" viewBox="0 0 512 512" width="512" xmlns="http://www.w3.org/2000/svg"><g><path d="m136.05 121.125h44.95c9.429 0 12.649-7.52 21.233-14.95h8.079l-3.564 74.825h98.504l-3.526-74.036c41.317 4.138 62.303 23.471 63.77 24.87 10.247 10.467 28.233 1.206 25.26-13.618-12.25-61.09-42.964-102.091-104.805-102.091h-83.452l-10.499-11.323c-2.839-3.062-6.825-4.802-11-4.802h-44.95c-8.284 0-15 6.716-15 15v91.125c0 8.284 6.716 15 15 15z"/><path d="m346.033 391.975-30.731.034-2.906-61.009h-112.792l-2.906 61.025h-30.648c-13.325 0-20.042 16.171-10.606 25.606l89.976 89.975c5.858 5.858 15.355 5.858 21.213 0l90.024-90.025c4.292-4.292 5.574-10.748 3.248-16.354-3.97-9.57-13.772-9.221-13.872-9.252z"/><path d="m501.482 286.159h-59.222l-16.275-30 16.275-30h59.706c7.449 0 12.337-7.884 8.928-14.509-21.75-42.267-107.616-76.505-156.217-.491h-197.859c-34.54-59.537-120.634-59.51-155.402-.108-3.917 6.692.845 15.108 8.597 15.108h59.222l16.275 30-16.275 30h-59.238c-7.744 0-12.508 8.4-8.607 15.092 34.578 59.31 120.818 59.565 155.428-.092h197.859c34.54 59.536 120.633 59.511 155.402.108 3.917-6.692-.845-15.108-8.597-15.108z"/></g></svg>