<svg id="Layer_1" viewBox="0 0 512 512" xmlns="http://www.w3.org/2000/svg" data-name="Layer 1"><path d="m256.014 396.536c77.5 0 140.549-63.05 140.549-140.55s-63.05-140.55-140.549-140.55c-77.515 0-140.578 63.051-140.578 140.55s63.064 140.55 140.578 140.55zm-15-219.425v-7.269a15 15 0 1 1 30 0v7.3c14.017 3.883 25.953 13.067 32.337 25.541a15 15 0 0 1 -26.707 13.666c-3.5-6.835-11.609-11.251-20.664-11.251-12.067 0-22.262 8.218-22.262 17.945 0 11.127 3.557 13.69 25.377 18.28 10.533 2.216 21.424 4.507 30.791 10.681 12.2 8.045 18.391 20.468 18.391 36.927 0 21.647-15.733 39.98-37.263 45.916v7.284a15 15 0 1 1 -30 0v-7.285c-14.028-3.874-25.978-13.066-32.369-25.556a15 15 0 0 1 26.707-13.665c3.5 6.835 11.594 11.251 20.628 11.251 12.295 0 22.3-8.05 22.3-17.945 0-11.106-3.554-13.664-25.358-18.251-10.537-2.217-21.434-4.509-30.8-10.688-12.207-8.049-18.4-20.481-18.4-36.949-.002-21.667 15.749-40.013 37.294-45.932zm207.948 172.815a214.582 214.582 0 0 1 -407.507-91.181l-7.849 7.848a15 15 0 0 1 -21.212-21.213l33.42-33.422a15 15 0 0 1 21.213 0l33.422 33.422a15 15 0 0 1 -21.213 21.213l-7.779-7.78c1.518 100.485 83.7 181.765 184.528 181.765 71.179 0 134.791-39.774 166.012-103.8a15 15 0 1 1 26.965 13.148zm50.644-83.333-33.421 33.421a15 15 0 0 1 -21.213 0l-33.422-33.421a15 15 0 1 1 21.213-21.213l7.779 7.779c-1.518-100.469-83.717-181.737-184.557-181.737-71.17 0-134.771 39.763-165.983 103.772a15 15 0 0 1 -26.965-13.148 214.589 214.589 0 0 1 407.507 91.183l7.85-7.849a15 15 0 0 1 21.212 21.213z"/></svg>