<svg clip-rule="evenodd" fill-rule="evenodd" stroke-linejoin="round" stroke-miterlimit="2" viewBox="0 0 510 510" xmlns="http://www.w3.org/2000/svg"><g id="Artboard81"><path d="m435.555 112.562h20.15c2.762 0 5 2.239 5 5v18.297h-107.299v-18.297c0-2.761 2.239-5 5-5h20.151v-13.766c0-1.326.527-2.598 1.464-3.535.938-.938 2.21-1.465 3.536-1.465h46.998c1.326 0 2.597.527 3.535 1.465.938.937 1.465 2.209 1.465 3.535zm-406.905 232.067h-5.903c-4.261 0-7.747-3.486-7.747-7.747v-10.671c0-4.261 3.486-7.747 7.747-7.747h18.798zm276.633-26.165h18.798c4.26 0 7.747 3.486 7.747 7.747v10.671c0 4.261-3.487 7.747-7.747 7.747h-5.903zm5.048 141.81v14.874c0 6.732-5.508 12.241-12.241 12.241h-16.862c-6.732 0-12.24-5.509-12.24-12.241v-14.874zm-232.491 0v14.874c0 6.732-5.508 12.241-12.241 12.241h-16.862c-6.732 0-12.24-5.509-12.24-12.241v-14.874zm-27.273-123.921 26.981-54.748c3.341-6.779 9.815-10.805 17.373-10.805h156.986c7.558 0 14.032 4.026 17.372 10.805l26.982 54.748c-3.282-.568-6.655-.864-10.094-.864h-15.752l-20.644-41.888h-152.714l-20.644 41.888h-15.751c-3.439 0-6.812.296-10.095.864zm10.095 15.136h225.505c23.863 0 43.387 19.524 43.387 43.387v49.398h-312.28v-49.398c0-23.863 19.524-43.387 43.388-43.387zm12.575 25.238c-11.684 0-21.155 9.471-21.155 21.155 0 11.683 9.471 21.154 21.155 21.154 11.683 0 21.155-9.471 21.155-21.154 0-11.684-9.472-21.155-21.155-21.155zm200.355 0c-11.684 0-21.155 9.471-21.155 21.155 0 11.683 9.471 21.154 21.155 21.154 11.683 0 21.154-9.471 21.154-21.154 0-11.684-9.471-21.155-21.154-21.155zm-144.874 7.725c-5.055 0-9.19 4.136-9.19 9.191v8.477c0 5.055 4.135 9.19 9.19 9.19h89.392c5.055 0 9.191-4.135 9.191-9.19v-8.477c0-5.055-4.136-9.191-9.191-9.191zm-46.58-127.371v-70.945c3.913-.481 7.636-2.059 10.724-4.583l107.885-88.194 102.364 83.681v137.019l-19.48-39.527c-6.101-12.379-17.923-19.732-31.724-19.732h-156.986c-4.517 0-8.822.787-12.783 2.281zm126.609-32.728h27.05c2.761 0 5-2.238 5-5v-24.491h-32.05zm-48.05-29.491v24.491c0 2.762 2.238 5 5 5h27.05v-29.491zm32.05-45.491h-27.05c-2.762 0-5 2.239-5 5v24.491h32.05zm48.05 29.491v-24.491c0-2.761-2.239-5-5-5h-27.05v29.491zm62.314-22.488-102.364-83.681-118.012 96.472c-.944.772-2.139 1.172-3.358 1.125l-43.406-1.681c-2.077-.081-3.887-1.437-4.548-3.408-.66-1.97-.032-4.144 1.577-5.459l167.747-137.131 138.531 113.248h-20.167c-8.836 0-16 7.163-16 16zm30.133 202.406c8.545-3.604 14.584-12.08 14.584-21.898v-10.671c0-13.062-10.687-23.747-23.747-23.747h-4.97v-145.605c0-1.326.527-2.598 1.465-3.536s2.209-1.464 3.535-1.464h165.889c1.326 0 2.598.526 3.536 1.464.937.938 1.464 2.21 1.464 3.536v320.53h-175.889v-17.115h10.443c8.837 0 16-7.164 16-16v-49.398c0-13.548-4.598-26.075-12.31-36.096zm129.559-129.208v-39.184c0-2.762-2.239-5-5-5h-42.747v44.184zm-63.747-44.184h-42.747c-2.762 0-5 2.238-5 5v39.184h47.747zm16 104.369h42.747c2.761 0 5-2.238 5-5v-39.185h-47.747zm-63.747-44.185v39.185c0 2.762 2.238 5 5 5h42.747v-44.185z"/></g></svg>