<svg id="Capa_1" enable-background="new 0 0 511.999 511.999" height="512" viewBox="0 0 511.999 511.999" width="512" xmlns="http://www.w3.org/2000/svg"><g><path d="m511.901 261.976c.13-1.316.13-2.641 0-3.957-.451-4.598-2.537-8.944-5.758-12.164l-80-80c-7.811-7.811-20.475-7.811-28.285 0s-7.811 20.474 0 28.284l45.858 45.858h-27.716c-99.252 0-180 80.748-180 180v72c0 11.046 8.954 20 20 20s20-8.954 20-20v-72c0-77.196 62.804-140 140-140h27.716l-45.858 45.858c-7.811 7.811-7.811 20.474 0 28.284 7.81 7.81 20.474 7.811 28.285 0l80-80c3.231-3.229 5.314-7.629 5.758-12.163z"/><path d="m96.001 239.998h-27.716l45.858-45.858c7.811-7.811 7.811-20.474 0-28.284s-20.475-7.811-28.285 0l-79.992 79.993c-3.83 3.823-5.866 9.076-5.866 14.149 0 5.1 2.041 10.331 5.866 14.149l79.993 79.993c7.81 7.81 20.474 7.811 28.285 0s7.811-20.474 0-28.284l-45.858-45.858h27.716c35.979 0 70.168 13.621 96.271 38.354 8.017 7.597 20.678 7.256 28.273-.762 7.598-8.018 7.257-20.677-.762-28.274-33.565-31.803-77.525-49.318-123.783-49.318z"/><path d="m256 261.253c11.046 0 20-8.954 20-20v-172.971l45.857 45.858c7.81 7.81 20.474 7.811 28.285 0s7.811-20.474 0-28.284c-91.454-91.45-78.841-78.816-80.041-80.038-3.363-3.341-7.795-5.297-12.127-5.72-1.312-.129-2.634-.129-3.946 0-4.617.451-9.007 2.596-12.169 5.758l-80 80c-7.811 7.811-7.811 20.474 0 28.284s20.475 7.811 28.285 0l45.856-45.858v172.971c0 11.046 8.954 20 20 20z"/></g></svg>